<svg width="109" height="100" viewBox="0 0 109 100" fill="none" xmlns="http://www.w3.org/2000/svg">
<path d="M21.3542 87.0855L20.7856 86.2031L27.4273 82.9724C27.5572 82.9158 27.6759 82.8551 27.7834 82.7903C27.8873 82.7217 28.0013 82.6288 28.1254 82.5116L28.3582 82.292C28.4629 82.1932 28.5737 82.1474 28.6904 82.1546C28.7996 82.1615 28.8982 82.2115 28.986 82.3046L30.5781 83.9921C30.6696 84.0891 30.7175 84.1942 30.7217 84.3075C30.7185 84.4206 30.6644 84.5266 30.5597 84.6254L30.3269 84.845C30.2532 84.9146 30.1947 84.9808 30.1514 85.0436C30.1042 85.1102 30.0369 85.2176 29.9496 85.366L25.6639 92.8191C25.5727 92.9712 25.5256 93.1 25.5225 93.2055C25.5119 93.3108 25.5311 93.4284 25.5802 93.5581L25.7128 93.8619C25.7586 93.9726 25.7689 94.0729 25.7437 94.1627C25.7184 94.2525 25.6709 94.3304 25.6011 94.3962C25.5002 94.4914 25.3915 94.5316 25.275 94.5169C25.1509 94.502 25.023 94.4247 24.8912 94.285L22.0803 91.3058C21.9449 91.1623 21.8752 91.0301 21.8711 90.9092C21.8632 90.792 21.9097 90.6859 22.0106 90.5907C22.1619 90.448 22.3359 90.4304 22.5328 90.538L22.8658 90.7627C22.9844 90.8341 23.0995 90.8355 23.2109 90.7671C23.3184 90.7023 23.4279 90.5696 23.5394 90.3692L27.7147 83.2071L28.9017 83.451L21.3542 87.0855ZM16.2134 84.4347C16.1087 84.5335 15.998 84.5755 15.8815 84.5608C15.7574 84.5459 15.6295 84.4686 15.4978 84.329L13.8507 82.5833C13.7153 82.4398 13.6456 82.3076 13.6416 82.1867C13.6339 82.062 13.6804 81.9521 13.7813 81.8569C13.855 81.7874 13.9334 81.75 14.0166 81.7449C14.0997 81.7398 14.2102 81.7675 14.3481 81.8281L14.6052 81.9374C14.7954 82.0147 14.9945 82.0431 15.2026 82.0227C15.4032 82.0021 15.6548 81.9114 15.9576 81.7504L22.8486 78.1194C23.0287 78.0228 23.1649 77.9457 23.2571 77.888C23.3493 77.8303 23.4459 77.7539 23.5467 77.6587L23.7795 77.4391C23.8842 77.3403 23.995 77.2945 24.1117 77.3016C24.2209 77.3086 24.3194 77.3586 24.4073 77.4517L26.0488 79.1915C26.1367 79.2846 26.1827 79.3878 26.187 79.5012C26.1873 79.6181 26.1351 79.726 26.0304 79.8248L25.7976 80.0444C25.7317 80.1067 25.6733 80.1691 25.6224 80.2318C25.5677 80.2981 25.4965 80.4092 25.409 80.5651L21.0523 87.9313C20.9369 88.1354 20.8705 88.2788 20.853 88.3612C20.8316 88.4474 20.8404 88.5344 20.8794 88.6223L21.0062 88.9316C21.0557 89.0463 21.0736 89.143 21.06 89.2218C21.0464 89.3006 21.0047 89.373 20.9349 89.4389C20.8301 89.5377 20.7195 89.5798 20.6029 89.5651C20.4789 89.5501 20.351 89.4728 20.2192 89.3332L17.4961 86.447C17.3607 86.3035 17.291 86.1713 17.287 86.0505C17.279 85.9333 17.3275 85.8253 17.4322 85.7264C17.5098 85.6532 17.5939 85.6142 17.6846 85.6093C17.7716 85.6005 17.8746 85.628 17.9935 85.6918L18.299 85.8875C18.414 85.955 18.5194 85.9656 18.615 85.9193C18.707 85.8691 18.8223 85.731 18.961 85.5049L23.1967 78.4069L24.2946 78.6029L16.6001 82.618C16.3625 82.7469 16.2036 82.8894 16.1236 83.0455C16.0436 83.2017 16.0547 83.4038 16.1569 83.652L16.3015 83.9335C16.3437 84.0404 16.358 84.1333 16.3444 84.2121C16.3269 84.2946 16.2832 84.3688 16.2134 84.4347Z" fill="white"/>
<path d="M15.2018 74.0958L12.4234 67.8543L13.3297 67.4509L16.108 73.6924L15.2018 74.0958ZM18.3791 70.7288C18.496 70.6767 18.5769 70.6027 18.6218 70.5069C18.6618 70.4132 18.6742 70.2967 18.659 70.1576L18.5978 69.7645C18.5809 69.5035 18.6796 69.3252 18.894 69.2298C19.0207 69.1734 19.1401 69.1728 19.2522 69.228C19.3622 69.2783 19.4573 69.3936 19.5375 69.5739L21.2683 73.462C21.3464 73.6375 21.3684 73.7853 21.3343 73.9055C21.2981 74.0209 21.2167 74.1068 21.09 74.1631C20.8756 74.2586 20.6771 74.2127 20.4945 74.0254L20.2433 73.7169C20.1501 73.6124 20.0564 73.5461 19.9622 73.518C19.8609 73.4872 19.7518 73.4978 19.6348 73.5499L12.1947 76.8618C12.0777 76.9138 11.9992 76.9867 11.9592 77.0804C11.9122 77.1714 11.8963 77.2865 11.9115 77.4256L11.9726 77.8187C11.9896 78.0797 11.8909 78.258 11.6765 78.3534C11.5449 78.4119 11.4266 78.415 11.3215 78.3625C11.2094 78.3074 11.1143 78.1921 11.0362 78.0167L9.30545 74.1285C9.2252 73.9482 9.20319 73.8004 9.2394 73.685C9.26858 73.5669 9.34894 73.4786 9.4805 73.4201C9.69488 73.3246 9.89338 73.3705 10.076 73.5578L10.3271 73.8663C10.4203 73.9708 10.5176 74.0384 10.6189 74.0692C10.7153 74.1022 10.822 74.0927 10.9389 74.0406L18.3791 70.7288ZM15.5064 64.2752C15.6234 64.2232 15.7043 64.1492 15.7492 64.0534C15.7892 63.9596 15.8016 63.8432 15.7863 63.7041L15.7252 63.3109C15.7082 63.0499 15.807 62.8717 16.0214 62.7763C16.148 62.7199 16.2674 62.7193 16.3796 62.7745C16.4895 62.8248 16.5846 62.9401 16.6649 63.1203L18.3956 67.0085C18.4737 67.1839 18.4957 67.3318 18.4617 67.452C18.4255 67.5674 18.344 67.6532 18.2173 67.7096C18.0029 67.8051 17.8044 67.7591 17.6218 67.5719L17.3707 67.2634C17.2775 67.1589 17.1838 67.0926 17.0895 67.0645C16.9882 67.0337 16.8791 67.0443 16.7622 67.0964L9.322 70.4082C9.20506 70.4603 9.12658 70.5332 9.08657 70.6269C9.03951 70.7179 9.0236 70.833 9.03884 70.9721L9.09998 71.3652C9.11692 71.6262 9.0182 71.8044 8.80381 71.8999C8.67226 71.9584 8.55394 71.9615 8.44885 71.909C8.33672 71.8538 8.24162 71.7385 8.16354 71.5631L6.43279 67.6749C6.35254 67.4947 6.33053 67.3468 6.36674 67.2315C6.39592 67.1134 6.47628 67.0251 6.60784 66.9665C6.82222 66.8711 7.02071 66.917 7.20331 67.1043L7.45448 67.4128C7.54768 67.5173 7.64493 67.5849 7.74621 67.6157C7.84262 67.6487 7.94929 67.6392 8.06623 67.5871L15.5064 64.2752Z" fill="white"/>
<path d="M11.8386 55.9603L12.562 58.3443L6.63632 62.5251C6.46037 62.6481 6.34091 62.752 6.27793 62.8367C6.20889 62.917 6.16183 63.0183 6.13673 63.1406L6.0835 63.3829C6.05312 63.506 6.00225 63.5998 5.93088 63.6642C5.85952 63.7286 5.77635 63.7678 5.68137 63.7818C5.53891 63.8028 5.42414 63.7739 5.33705 63.6951C5.2439 63.6118 5.18294 63.4725 5.15416 63.2773L4.54285 59.1301C4.51407 58.9349 4.53226 58.784 4.5974 58.6773C4.65649 58.5662 4.75727 58.5001 4.89973 58.4791C5.14244 58.4434 5.32017 58.5519 5.43293 58.8049L5.54849 59.0951C5.62692 59.2615 5.71595 59.3535 5.8156 59.3711C5.91524 59.3888 6.06133 59.3376 6.25389 59.2176L11.0451 56.1177L11.6828 57.0426L6.03839 55.287C5.78462 55.2112 5.57232 55.2155 5.40148 55.3C5.22459 55.38 5.11035 55.5558 5.05876 55.8276L5.01486 56.1333C4.99115 56.2284 4.94664 56.3104 4.88133 56.3794C4.81074 56.4491 4.72004 56.4921 4.60924 56.5084C4.46678 56.5294 4.35161 56.4979 4.26374 56.4138C4.1706 56.3305 4.11003 56.1939 4.08203 56.0039L3.73671 53.6612C3.70793 53.466 3.7265 53.3177 3.79242 53.2164C3.85229 53.1105 3.95346 53.0471 4.09592 53.0261C4.20145 53.0105 4.292 53.0214 4.3676 53.0588C4.43791 53.0969 4.51065 53.1698 4.58579 53.2773L4.66661 53.3867C4.72438 53.486 4.80247 53.5769 4.90089 53.6594C4.99326 53.7375 5.12334 53.8153 5.29113 53.893C5.45814 53.9654 5.68855 54.0474 5.98236 54.1389L11.8386 55.9603ZM11.6592 58.8575L11.2088 55.8025L13.7731 55.4245C13.8998 55.4058 13.9976 55.3564 14.0666 55.2761C14.1304 55.1966 14.174 55.0904 14.1976 54.9576L14.2445 54.5625C14.2984 54.3066 14.4414 54.1615 14.6736 54.1273C14.8108 54.1071 14.9256 54.136 15.0179 54.214C15.1103 54.292 15.1709 54.4287 15.1996 54.6239L15.8203 58.8344C15.8491 59.0296 15.8305 59.1779 15.7646 59.2793C15.6986 59.3806 15.5971 59.4414 15.4599 59.4617C15.2277 59.4959 15.0489 59.3982 14.9235 59.1688L14.7646 58.804C14.7029 58.6783 14.6305 58.5893 14.5473 58.5369C14.458 58.4799 14.3501 58.4608 14.2235 58.4795L11.6592 58.8575Z" fill="white"/>
<path d="M4.2264 42.2441L5.3482 36.8148C5.39245 36.6007 5.40879 36.4162 5.39722 36.2613C5.38043 36.1053 5.36301 35.9656 5.34497 35.842C5.32171 35.7174 5.32248 35.595 5.34731 35.4749C5.39047 35.266 5.47508 35.1201 5.60112 35.0372C5.72302 34.948 5.91057 34.8969 6.16378 34.8839L8.85439 34.9088C9.03953 34.909 9.18046 34.9517 9.2772 35.037C9.37393 35.1224 9.41971 35.2435 9.41453 35.4003C9.41673 35.5478 9.38299 35.6716 9.31332 35.7715C9.23951 35.8652 9.11931 35.933 8.95274 35.9748C8.27077 36.1389 7.74367 36.2914 7.37146 36.4323C6.99402 36.5721 6.72212 36.7284 6.55575 36.9009C6.38417 37.0724 6.27194 37.2861 6.21906 37.5421L6.07823 38.2237L14.5708 39.9784C14.6962 40.0043 14.8051 39.9914 14.8974 39.9397C14.9846 39.8869 15.0625 39.7995 15.1313 39.6776L15.3109 39.3226C15.4493 39.1007 15.6334 39.0134 15.8632 39.0609C16.1557 39.1214 16.2631 39.3396 16.1854 39.7157L15.3242 43.8836C15.2854 44.0717 15.2171 44.2046 15.1193 44.2824C15.0226 44.355 14.9064 44.3773 14.7706 44.3492C14.5407 44.3017 14.4063 44.1487 14.3671 43.8901L14.343 43.493C14.3282 43.3538 14.2907 43.2453 14.2305 43.1675C14.1662 43.0834 14.0714 43.0284 13.946 43.0025L5.45339 41.2478L5.31417 41.9216C5.26129 42.1775 5.27964 42.4182 5.3692 42.6436C5.45355 42.868 5.64127 43.1192 5.93238 43.3972C6.21826 43.6741 6.64121 44.0256 7.20124 44.4517C7.3376 44.5562 7.42056 44.6686 7.45013 44.7891C7.47555 44.9032 7.45803 45.0276 7.39755 45.1622C7.34122 45.303 7.25174 45.3934 7.1291 45.4334C7.00647 45.4735 6.8596 45.4594 6.68849 45.3914L4.20994 44.3402C3.98263 44.2278 3.83015 44.1092 3.7525 43.9842C3.66962 43.8582 3.64977 43.6907 3.69293 43.4818C3.71883 43.3564 3.76716 43.2412 3.83791 43.136C3.90343 43.0297 3.97481 42.9083 4.05203 42.7718C4.12403 42.6341 4.18216 42.4583 4.2264 42.2441Z" fill="white"/>
<path d="M12.8994 30.6329L16.0882 24.5908L16.9656 25.0538L13.7767 31.0959L12.8994 30.6329ZM17.5102 31.0491C17.6234 31.1089 17.7315 31.1267 17.8346 31.1028C17.933 31.0763 18.0322 31.0141 18.1322 30.9161L18.4034 30.625C18.5981 30.4504 18.7992 30.4178 19.0067 30.5273C19.1294 30.592 19.2037 30.6855 19.2296 30.8078C19.258 30.9253 19.2262 31.0713 19.1341 31.2458L17.1476 35.0098C17.058 35.1796 16.9554 35.2883 16.8398 35.3358C16.7267 35.3787 16.6089 35.3677 16.4862 35.303C16.2787 35.1935 16.1921 35.0091 16.2264 34.7498L16.3137 34.3616C16.3382 34.2238 16.3324 34.1092 16.2962 34.0177C16.2578 33.919 16.182 33.8398 16.0688 33.7801L8.86637 29.9788C8.75317 29.9191 8.64737 29.9025 8.54898 29.9289C8.44835 29.9482 8.34806 30.0068 8.24809 30.1048L7.97688 30.3959C7.78218 30.5705 7.58107 30.6031 7.37353 30.4936C7.24618 30.4263 7.17065 30.3352 7.14693 30.2202C7.12099 30.0979 7.15283 29.9519 7.24244 29.7821L9.22896 26.0182C9.32107 25.8436 9.42365 25.735 9.53672 25.6921C9.64757 25.6421 9.76666 25.6507 9.89402 25.7179C10.1016 25.8274 10.1882 26.0118 10.1538 26.2711L10.0666 26.6592C10.0421 26.7971 10.049 26.9153 10.0874 27.014C10.1211 27.1102 10.1945 27.1881 10.3077 27.2479L17.5102 31.0491ZM20.8073 24.8018C20.9205 24.8616 21.0287 24.8794 21.1318 24.8555C21.2302 24.829 21.3294 24.7668 21.4293 24.6688L21.7006 24.3777C21.8952 24.203 22.0964 24.1705 22.3039 24.28C22.4265 24.3447 22.5008 24.4382 22.5268 24.5605C22.5552 24.678 22.5234 24.824 22.4313 24.9985L20.4447 28.7625C20.3551 28.9323 20.2525 29.041 20.137 29.0885C20.0239 29.1314 19.906 29.1204 19.7834 29.0557C19.5759 28.9462 19.4893 28.7618 19.5236 28.5025L19.6109 28.1143C19.6354 27.9765 19.6295 27.8619 19.5934 27.7704C19.555 27.6717 19.4792 27.5925 19.366 27.5328L12.1635 23.7315C12.0503 23.6718 11.9445 23.6552 11.8461 23.6816C11.7455 23.7009 11.6452 23.7595 11.5453 23.8575L11.274 24.1486C11.0794 24.3232 10.8782 24.3558 10.6707 24.2463C10.5433 24.179 10.4678 24.0879 10.4441 23.9729C10.4182 23.8506 10.45 23.7046 10.5396 23.5348L12.5261 19.7709C12.6182 19.5963 12.7208 19.4877 12.8339 19.4448C12.9447 19.3948 13.0638 19.4034 13.1912 19.4706C13.3987 19.5801 13.4853 19.7645 13.451 20.0238L13.3637 20.4119C13.3392 20.5498 13.3462 20.668 13.3846 20.7667C13.4182 20.8628 13.4917 20.9408 13.6049 21.0005L20.8073 24.8018Z" fill="white"/>
<path d="M25.2701 19.4059C25.3667 19.49 25.4679 19.5321 25.5737 19.5324C25.6756 19.5291 25.7846 19.4932 25.9008 19.4247L26.2314 19.2034C26.4644 19.0738 26.6694 19.0861 26.8464 19.2402C26.951 19.3313 27.0019 19.4393 26.9992 19.5642C27 19.6851 26.9356 19.82 26.806 19.9688L24.0114 23.1787C23.8854 23.3235 23.7606 23.4059 23.6373 23.4258C23.5174 23.4416 23.4052 23.404 23.3006 23.313C23.1236 23.1589 23.0814 22.9595 23.1742 22.715L23.3479 22.3571C23.4032 22.2285 23.4238 22.1155 23.4095 22.0182C23.3947 21.9134 23.339 21.819 23.2425 21.7349L17.1002 16.3873C17.0036 16.3033 16.9044 16.2629 16.8026 16.2662C16.7002 16.2619 16.5892 16.296 16.4694 16.3686L16.1389 16.5899C15.9094 16.7154 15.7062 16.7011 15.5292 16.547C15.4206 16.4525 15.3679 16.3465 15.3711 16.2291C15.3738 16.1041 15.4382 15.9693 15.5642 15.8245L18.3589 12.6145C18.4884 12.4657 18.6132 12.3834 18.733 12.3675C18.8524 12.3441 18.9664 12.3797 19.075 12.4743C19.252 12.6284 19.2924 12.8297 19.1961 13.0783L19.0224 13.4362C18.9706 13.5608 18.952 13.6755 18.9668 13.7803C18.9776 13.8816 19.0313 13.9743 19.1278 14.0583L25.2701 19.4059Z" fill="white"/>
<path d="M31.8539 15.6742C31.535 15.9244 31.2322 16.1044 30.9455 16.2142C30.663 16.3207 30.4198 16.3996 30.2161 16.451C30.0133 16.4949 29.8699 16.5498 29.786 16.6157C29.6937 16.6881 29.6321 16.7737 29.6012 16.8726C29.567 16.9672 29.541 17.0723 29.5233 17.1879C29.5064 17.2961 29.4809 17.3974 29.4467 17.4921C29.4158 17.5909 29.3584 17.6733 29.2745 17.7391C29.1654 17.8247 29.0505 17.864 28.9297 17.8571C28.8132 17.8468 28.6848 17.7782 28.5444 17.6511L26.4835 15.8413C26.3844 15.7496 26.3299 15.6499 26.3201 15.5424C26.3112 15.4274 26.3448 15.3061 26.421 15.1785C26.5088 15.0486 26.6149 14.9721 26.7392 14.9491C26.8603 14.9219 27.0037 14.9449 27.1696 15.0181C27.8141 15.3123 28.375 15.4958 28.8525 15.5686C29.3299 15.6414 29.7511 15.6295 30.116 15.533C30.4776 15.4322 30.8011 15.2699 31.0864 15.046C31.4766 14.7398 31.7092 14.4013 31.7843 14.0305C31.8603 13.6522 31.7687 13.2936 31.5095 12.9547C31.3317 12.7281 31.1208 12.5716 30.8767 12.4852C30.6335 12.3913 30.2946 12.3827 29.8599 12.4594C29.4219 12.532 28.8305 12.7114 28.0857 12.9976C27.2773 13.3065 26.5726 13.4799 25.9717 13.5175C25.375 13.5519 24.842 13.4516 24.3728 13.2164C23.9002 12.9771 23.4647 12.6036 23.0663 12.096C22.6548 11.5715 22.4168 11.0091 22.3525 10.4088C22.289 9.80094 22.3992 9.20265 22.6829 8.6139C22.9708 8.02187 23.4273 7.48055 24.0525 6.98996C24.4133 6.7068 24.7434 6.5054 25.0427 6.38575C25.3387 6.26192 25.5966 6.17146 25.8162 6.11437C26.0325 6.05309 26.1994 5.97636 26.3168 5.88417C26.4133 5.80844 26.4672 5.70857 26.4783 5.58456C26.4904 5.45307 26.5062 5.32202 26.5257 5.19143C26.5462 5.05335 26.6193 4.93492 26.7452 4.83614C26.8585 4.74725 26.9788 4.71047 27.1061 4.72582C27.2343 4.73369 27.4051 4.81317 27.6186 4.96427L29.8324 6.59304C29.968 6.69676 30.0523 6.81708 30.0851 6.954C30.1222 7.08762 30.0968 7.2194 30.009 7.34936C29.9211 7.47931 29.815 7.55578 29.6907 7.57877C29.5664 7.60177 29.4283 7.58131 29.2765 7.51742C28.5931 7.19949 27.9802 7.00592 27.4377 6.9367C26.8953 6.86748 26.4178 6.88966 26.0052 7.00325C25.5927 7.11683 25.2333 7.2938 24.927 7.53416C24.5452 7.83378 24.3308 8.17829 24.2838 8.56768C24.2336 8.95287 24.3435 9.31748 24.6135 9.66153C24.7814 9.87551 24.9881 10.0353 25.2337 10.1409C25.476 10.2423 25.8168 10.2663 26.2563 10.2129C26.6967 10.1521 27.2891 9.99562 28.0337 9.74354C28.8651 9.46395 29.5787 9.3107 30.1745 9.2838C30.7712 9.24941 31.2923 9.33883 31.7376 9.55207C32.1796 9.76112 32.5817 10.0964 32.9439 10.5579C33.3258 11.0446 33.5473 11.586 33.6083 12.1822C33.6694 12.7783 33.5588 13.3804 33.2766 13.9883C32.991 14.592 32.5168 15.154 31.8539 15.6742Z" fill="white"/>
<path fill-rule="evenodd" clip-rule="evenodd" d="M40.0066 95.1828C39.8232 95.4711 39.6381 95.7549 39.4512 96.034C45.4562 98.5873 52.0632 100 59.0002 100C86.6144 100 109 77.6142 109 50C109 22.3858 86.6144 0 59.0002 0C52.2603 0 45.8319 1.33354 39.9645 3.75116C40.145 4.03385 40.3238 4.32094 40.5008 4.61235C46.2089 2.28343 52.4546 1 59.0002 1C86.0621 1 108 22.938 108 50C108 77.062 86.0621 99 59.0002 99C52.2652 99 45.8476 97.6412 40.0066 95.1828Z" fill="#FEFCF4"/>
</svg>
