<svg width="108" height="102" viewBox="0 0 108 102" fill="none" xmlns="http://www.w3.org/2000/svg">
<path d="M29.2037 90.2396L25.5635 87.2984L26.1461 86.4944L29.8362 89.4758L29.2037 90.2396ZM30.8973 86.2105C30.9813 86.1002 31.0829 86.0418 31.2019 86.0351C31.3209 86.0285 31.4572 86.0872 31.6107 86.2112L33.5895 87.81C33.7388 87.9307 33.8266 88.053 33.8528 88.1769C33.8789 88.3009 33.85 88.418 33.7659 88.5283C33.7077 88.6047 33.6406 88.6532 33.5644 88.6739C33.4809 88.6956 33.3705 88.6954 33.233 88.6734L33.002 88.6204C32.8184 88.5886 32.6456 88.5998 32.4837 88.654C32.3185 88.7124 32.084 88.8486 31.7803 89.0624L25.5944 93.3788C25.3599 93.5457 25.2179 93.688 25.1684 93.8057C25.1148 93.92 25.1401 94.0672 25.2441 94.2473C25.3174 94.3887 25.3546 94.5113 25.3559 94.6151C25.353 94.7156 25.3176 94.8104 25.2498 94.8995C25.1657 95.0098 25.0637 95.0644 24.9438 95.0635C24.8206 95.0668 24.6843 95.0081 24.535 94.8874L21.0254 92.0518C20.8719 91.9278 20.7841 91.8055 20.7621 91.6849C20.7327 91.5651 20.76 91.4501 20.8441 91.3399C20.9184 91.2423 21.0048 91.1818 21.103 91.1584C21.1981 91.1393 21.3079 91.1491 21.4324 91.1881C21.5726 91.2328 21.6821 91.2254 21.7611 91.1658C21.8368 91.1104 21.9128 90.9799 21.9891 90.7743L24.6963 83.1331C24.8059 82.831 24.8691 82.5942 24.8858 82.4227C24.8984 82.2478 24.8598 82.083 24.77 81.9282C24.6899 81.7607 24.6497 81.6288 24.6493 81.5325C24.649 81.4363 24.6843 81.3415 24.7555 81.2482C24.8395 81.1379 24.9431 81.0811 25.0663 81.0778C25.1895 81.0745 25.3257 81.1332 25.4751 81.2539L28.4993 83.6973C28.6528 83.8214 28.7426 83.9453 28.7688 84.0693C28.7908 84.1899 28.7598 84.3053 28.6758 84.4156C28.6079 84.5047 28.5317 84.5563 28.4473 84.5703C28.3555 84.5852 28.2436 84.5737 28.1117 84.5356L27.7749 84.3971C27.6347 84.3524 27.538 84.3737 27.4849 84.461C27.4318 84.5483 27.3627 84.7049 27.2776 84.9309L24.2709 93.1628L23.9194 93.1358L30.7063 88.4003C30.9131 88.2521 31.0634 88.1165 31.1571 87.9935C31.2509 87.8704 31.2912 87.7385 31.2779 87.5976C31.2647 87.4566 31.2062 87.2826 31.1027 87.0756L30.9216 86.7854C30.8595 86.6735 30.8229 86.5719 30.8119 86.4808C30.8009 86.3897 30.8294 86.2996 30.8973 86.2105Z" fill="#FEFCF4"/>
<path d="M26.134 82.3536C25.9479 82.5052 25.747 82.5106 25.5314 82.3699L25.2168 82.131C25.0952 82.0513 24.9859 82.0096 24.889 82.006C24.788 82.0058 24.6899 82.0443 24.5948 82.1218L18.2789 87.2632C18.1837 87.3406 18.1267 87.4283 18.1078 87.5262C18.0847 87.6275 18.0968 87.7483 18.144 87.8885L18.2973 88.2587C18.3764 88.5106 18.3249 88.7105 18.1429 88.8587C18.0313 88.9496 17.9189 88.9827 17.8057 88.9579C17.6852 88.9323 17.5665 88.8433 17.4496 88.691L14.6478 85.0427C14.0469 84.2602 13.6149 83.4569 13.3519 82.633C13.0847 81.8125 12.9809 81.0033 13.0404 80.2056C13.1 79.4078 13.3173 78.6535 13.6923 77.9427C14.0673 77.2318 14.5981 76.5969 15.2847 76.038C16.0622 75.405 16.9017 75.0276 17.8029 74.9057C18.6968 74.783 19.5838 74.9271 20.464 75.338C21.3409 75.7446 22.1448 76.4238 22.8757 77.3756L26.1355 81.6203C26.2524 81.7726 26.3091 81.9121 26.3055 82.0387C26.2987 82.1611 26.2415 82.2661 26.134 82.3536ZM22.3469 78.2494C21.9896 77.7841 21.5566 77.4698 21.048 77.3064C20.5394 77.143 19.961 77.1601 19.3129 77.3577C18.6606 77.5587 17.9519 77.9707 17.1867 78.5936C16.5787 79.0885 16.0888 79.5973 15.7171 80.1199C15.3454 80.6424 15.0911 81.1691 14.9543 81.6998C14.8174 82.2306 14.8034 82.7507 14.9123 83.2601C15.0138 83.7687 15.2416 84.2535 15.5956 84.7145L15.9513 85.1777L22.5402 79.8141C22.7553 79.639 22.867 79.4518 22.8753 79.2526C22.8836 79.0533 22.8001 78.8395 22.6247 78.6111L22.3469 78.2494Z" fill="#FEFCF4"/>
<path d="M6.32223 71.4863C6.19133 71.5463 6.07394 71.5502 5.97009 71.4981C5.85926 71.4433 5.7647 71.3254 5.68639 71.1442L4.67999 68.8165C4.60168 68.6354 4.5809 68.4865 4.61764 68.37C4.64742 68.2507 4.72534 68.1622 4.8514 68.1045C4.94352 68.0622 5.03274 68.0536 5.11905 68.0786C5.1984 68.1009 5.29119 68.161 5.39744 68.2589L5.60402 68.4546C5.75355 68.5855 5.92781 68.6728 6.12679 68.7165C6.32093 68.7624 6.60264 68.7624 6.97193 68.7163L14.5311 67.9002C14.7692 67.8732 14.9552 67.8466 15.0891 67.8204C15.216 67.7916 15.3425 67.7482 15.4686 67.6905L15.8395 67.5205C15.9656 67.4627 16.083 67.4588 16.1917 67.5087C16.2934 67.5559 16.3707 67.6407 16.4236 67.7631L17.3951 70.0101C17.448 70.1324 17.4575 70.2484 17.4235 70.3578C17.3825 70.4645 17.2941 70.549 17.1584 70.6113L16.7875 70.7812C16.7099 70.8168 16.6265 70.8726 16.5374 70.9486C16.4435 71.0269 16.3395 71.1156 16.2255 71.2147L10.0232 77.0838C9.88373 77.2181 9.7914 77.3337 9.74618 77.4307C9.69612 77.5299 9.66983 77.6504 9.66729 77.7923L9.68069 78.0853C9.67111 78.3185 9.57178 78.4784 9.38269 78.565C9.25178 78.625 9.1344 78.629 9.03054 78.5769C8.91972 78.5221 8.82515 78.4041 8.74684 78.223L7.07375 74.3532C6.99544 74.172 6.97466 74.0232 7.0114 73.9067C7.04118 73.7874 7.12153 73.6978 7.25243 73.6378C7.3494 73.5934 7.4421 73.5861 7.53053 73.616C7.61199 73.6431 7.70236 73.7044 7.80164 73.7996L8.05902 74.1128C8.16253 74.2178 8.27503 74.2631 8.39651 74.2484C8.51588 74.2289 8.66635 74.1336 8.84793 73.9624L14.8229 68.3735L15.8453 68.864L7.3196 69.7623C7.04119 69.7902 6.84197 69.8668 6.72191 69.9922C6.59489 70.1149 6.53233 70.3196 6.53422 70.6061L6.56892 70.9685C6.57184 71.0962 6.55692 71.2028 6.52413 71.2882C6.49135 71.3736 6.42405 71.4396 6.32223 71.4863Z" fill="#FEFCF4"/>
<path d="M10.0004 62.851L9.14787 58.2493L10.1169 58.0346L10.9811 62.6992L10.0004 62.851ZM13.922 60.964C14.0581 60.9373 14.1736 60.9608 14.2686 61.0345C14.3637 61.1083 14.4291 61.2422 14.4651 61.4362L14.9285 63.9376C14.9635 64.1264 14.9504 64.2757 14.8894 64.3855C14.8284 64.4953 14.7299 64.5636 14.5938 64.5903C14.4996 64.6088 14.4167 64.6006 14.3452 64.5658C14.2674 64.5267 14.1834 64.4535 14.093 64.3463L13.9516 64.1539C13.8325 64.0088 13.6936 63.903 13.5348 63.8363C13.3708 63.7707 13.1032 63.7172 12.7322 63.676L5.20036 62.8072C4.91268 62.7767 4.71157 62.789 4.59703 62.8441C4.48152 62.894 4.40462 63.0205 4.36632 63.2237C4.32975 63.3776 4.27805 63.4938 4.21121 63.5721C4.14339 63.6452 4.05453 63.6925 3.94463 63.7141C3.80856 63.7408 3.69515 63.7142 3.6044 63.6342C3.50841 63.5552 3.44293 63.4213 3.40796 63.2326L2.58606 58.796C2.55011 58.602 2.56313 58.4527 2.62511 58.3481C2.68089 58.2394 2.77682 58.1716 2.91289 58.1449C3.03325 58.1213 3.13852 58.1332 3.22868 58.1807C3.3136 58.2292 3.39079 58.3092 3.46023 58.4206C3.53783 58.5466 3.62615 58.6135 3.72521 58.6213C3.81903 58.63 3.96217 58.5829 4.15461 58.4799L11.2075 54.5676C11.4883 54.4146 11.6911 54.2797 11.8159 54.1628C11.9397 54.0407 12.018 53.8921 12.0507 53.7172C12.0991 53.5392 12.1545 53.4142 12.2171 53.3421C12.2797 53.2701 12.3686 53.2227 12.4837 53.2001C12.6198 53.1734 12.7358 53.1995 12.8318 53.2785C12.9278 53.3575 12.9932 53.4914 13.0282 53.6802L13.7364 57.5031C13.7724 57.6971 13.7599 57.8491 13.6988 57.9589C13.6369 58.0634 13.5378 58.1291 13.4018 58.1558C13.2919 58.1774 13.2002 58.1655 13.1267 58.1201C13.047 58.0706 12.9693 57.988 12.8937 57.8724L12.7275 57.5463C12.6499 57.4203 12.5624 57.3723 12.4649 57.4023C12.3674 57.4323 12.2124 57.5035 12 57.6158L4.33312 61.771L4.08295 61.5184L12.3464 62.4718C12.6008 62.498 12.8038 62.4961 12.9556 62.4663C13.1073 62.4365 13.2242 62.3647 13.3061 62.2507C13.3881 62.1368 13.4572 61.9684 13.5135 61.7453L13.5651 61.4091C13.5909 61.2845 13.6293 61.1845 13.6804 61.1093C13.7316 61.034 13.8121 60.9856 13.922 60.964Z" fill="#FEFCF4"/>
<path d="M12.862 50.8214C13.0004 50.8291 13.1071 50.8831 13.1819 50.9834C13.2517 51.0781 13.2841 51.2241 13.2791 51.4215L13.1436 54.0019C13.1279 54.1987 13.0803 54.3429 13.0007 54.4346C12.916 54.5207 12.8045 54.5599 12.666 54.5522C12.4424 54.5398 12.2816 54.3973 12.1838 54.1248L12.1102 53.8482C12.0219 53.5976 11.9137 53.4207 11.7856 53.3174C11.6578 53.2088 11.4528 53.1466 11.1705 53.1309L4.68458 52.7698C4.50353 52.7597 4.35863 52.773 4.24989 52.8097C4.14143 52.8411 3.9929 52.9236 3.8043 53.0573L2.92362 53.6573C2.77985 53.7508 2.66972 53.8141 2.59321 53.8472C2.51137 53.8801 2.43052 53.8943 2.35064 53.8898C2.21751 53.8824 2.11871 53.8315 2.05424 53.7371C1.98445 53.6424 1.95346 53.5205 1.9613 53.3714L2.08088 51.0945C2.09067 50.9081 2.13059 50.7581 2.20065 50.6445C2.26538 50.5306 2.38882 50.4172 2.57098 50.3045L10.6568 45.0659L11.7772 45.5449L4.41265 45.1349C4.13574 45.1195 3.93101 45.1535 3.79845 45.237C3.66085 45.3148 3.52914 45.4837 3.40333 45.7438L3.3012 46.0105C3.16474 46.27 2.99 46.3938 2.777 46.3819C2.63322 46.3739 2.52644 46.3226 2.45664 46.2279C2.3818 46.1276 2.34941 45.9816 2.35948 45.7898L2.49543 43.2014C2.50578 43.0043 2.55327 42.8627 2.6379 42.7766C2.71749 42.6849 2.82917 42.6431 2.97294 42.6511C3.19127 42.6632 3.35202 42.8057 3.45519 43.0785L3.52836 43.363C3.61163 43.6081 3.71717 43.7849 3.84498 43.8935C3.97307 43.9967 4.1809 44.0564 4.46845 44.0724L11.0503 44.4388C11.242 44.4495 11.4079 44.4427 11.548 44.4185C11.6881 44.3942 11.8217 44.3429 11.9486 44.2645L12.646 43.7985C12.8066 43.69 12.9274 43.6273 13.0084 43.6104C13.0897 43.5882 13.1702 43.5793 13.2501 43.5838C13.3832 43.5912 13.4874 43.6424 13.5625 43.7374C13.6376 43.8324 13.671 43.9598 13.6626 44.1195L13.5245 46.7479C13.5092 47.0409 13.3817 47.1806 13.142 47.1673C13.0515 47.1623 12.9653 47.1762 12.8835 47.209C12.7963 47.2415 12.6366 47.3341 12.4043 47.4868L4.46764 52.6295L3.90967 51.661L11.2343 52.0688C11.5006 52.0836 11.7027 52.0495 11.8405 51.9664C11.9731 51.8829 12.1047 51.7167 12.2352 51.4675L12.3378 51.1928C12.4689 50.933 12.6437 50.8092 12.862 50.8214Z" fill="#FEFCF4"/>
<path d="M3.78143 37.315L5.40914 32.0153C5.47334 31.8063 5.50708 31.6238 5.51035 31.4679C5.50855 31.3103 5.50459 31.1688 5.49847 31.0434C5.48728 30.9164 5.49969 30.7942 5.5357 30.677C5.59834 30.473 5.69603 30.3366 5.82877 30.2677C5.95801 30.192 6.14866 30.1615 6.40073 30.1763L9.06371 30.4965C9.2471 30.5169 9.38265 30.5751 9.47036 30.6709C9.55806 30.7668 9.59189 30.8927 9.57184 31.0488C9.55999 31.1964 9.5148 31.3163 9.43627 31.4085C9.35424 31.4939 9.22873 31.5484 9.05974 31.5719C8.36857 31.6609 7.83191 31.7554 7.44979 31.8553C7.06259 31.9536 6.77838 32.0798 6.59716 32.2339C6.41088 32.3863 6.27937 32.5875 6.20264 32.8373L5.9983 33.5026L14.2443 36.1873C14.366 36.2269 14.4751 36.226 14.5715 36.1844C14.6628 36.1413 14.7484 36.0626 14.8281 35.9483L15.0397 35.6134C15.198 35.407 15.3887 35.3401 15.6118 35.4127C15.8958 35.5052 15.9814 35.735 15.8687 36.102L14.6191 40.1705C14.5628 40.354 14.4824 40.4793 14.3782 40.5463C14.2755 40.6082 14.1582 40.6177 14.0264 40.5747C13.8032 40.5021 13.6846 40.3345 13.6704 40.0719L13.6842 39.6726C13.6828 39.532 13.656 39.4195 13.6038 39.3352C13.5481 39.2441 13.4594 39.1788 13.3377 39.1392L5.09167 36.4545L4.88967 37.1122C4.81294 37.362 4.80822 37.6044 4.8755 37.8395C4.93771 38.0728 5.09978 38.3443 5.36171 38.6539C5.61857 38.9618 6.00412 39.3594 6.51835 39.8464C6.6435 39.9657 6.71499 40.0871 6.73282 40.2107C6.74714 40.3275 6.71795 40.4498 6.64525 40.5775C6.57605 40.712 6.4788 40.7925 6.35351 40.8191C6.22822 40.8456 6.08407 40.8154 5.92104 40.7287L3.56575 39.4067C3.35125 39.2696 3.21149 39.1344 3.14645 39.001C3.07634 38.866 3.07261 38.6966 3.13524 38.4926C3.17282 38.3703 3.23166 38.2604 3.31175 38.1631C3.38677 38.0642 3.46902 37.9508 3.5585 37.8229C3.64292 37.6933 3.71723 37.524 3.78143 37.315Z" fill="#FEFCF4"/>
<path d="M13.9516 28.641L16.2954 24.5902L17.1531 25.0881L14.7772 29.1943L13.9516 28.641ZM18.0808 29.8883C18.199 29.9608 18.2695 30.0572 18.2922 30.1775C18.315 30.2978 18.277 30.4433 18.1782 30.6141L16.9041 32.8161C16.808 32.9823 16.7017 33.086 16.5855 33.1273C16.4692 33.1685 16.352 33.1529 16.2337 33.0804C16.1519 33.0302 16.0957 32.9676 16.0652 32.8926C16.0328 32.8102 16.0178 32.6978 16.0201 32.5554L16.0397 32.314C16.0452 32.1235 16.0106 31.9491 15.9359 31.7907C15.8567 31.6295 15.6928 31.4071 15.4443 31.1233L10.4197 25.3396C10.2261 25.1207 10.0689 24.9931 9.94833 24.9567C9.83041 24.9156 9.69155 24.9587 9.53174 25.0858C9.40507 25.177 9.29161 25.2294 9.19136 25.2429C9.09379 25.2519 8.99726 25.2271 8.90179 25.1685C8.78358 25.096 8.7167 24.9987 8.70113 24.8766C8.68101 24.7517 8.71903 24.6061 8.81519 24.4399L11.0749 20.5345C11.1737 20.3637 11.2799 20.26 11.3935 20.2234C11.5052 20.1793 11.6202 20.1935 11.7384 20.266C11.843 20.3301 11.9133 20.4108 11.9495 20.5081C11.9811 20.6025 11.9866 20.7153 11.9661 20.8466C11.9421 20.9945 11.9644 21.1051 12.0328 21.1784C12.0968 21.2489 12.2334 21.3108 12.4428 21.3641L20.2042 23.2162C20.5114 23.292 20.7491 23.3283 20.9173 23.3251C21.0881 23.3173 21.2422 23.2586 21.3796 23.149C21.5306 23.0477 21.6526 22.9912 21.7456 22.9794C21.8386 22.9677 21.9352 22.9925 22.0352 23.0538C22.1534 23.1263 22.2226 23.2251 22.2427 23.35C22.2628 23.4749 22.2248 23.6204 22.1286 23.7866L20.1814 27.1519C20.0826 27.3227 19.9751 27.4287 19.8588 27.47C19.7452 27.5067 19.6293 27.4887 19.5111 27.4162C19.4156 27.3577 19.3553 27.2863 19.3301 27.202C19.3031 27.1104 19.2989 26.9952 19.3175 26.8566L19.4051 26.4975C19.4291 26.3496 19.3952 26.2538 19.3035 26.21C19.2118 26.1663 19.0508 26.1145 18.8206 26.0546L10.4467 23.9676L10.4244 23.6069L15.937 29.9525C16.1087 30.1454 16.2605 30.2823 16.3923 30.3632C16.5242 30.444 16.6573 30.4694 16.7918 30.4393C16.9262 30.4092 17.0865 30.3292 17.2725 30.1993L17.5282 29.9809C17.6279 29.9045 17.721 29.8553 17.8076 29.8333C17.8942 29.8114 17.9853 29.8297 18.0808 29.8883Z" fill="#FEFCF4"/>
<path d="M28.9656 17.7554C29.1008 17.8917 29.171 18.0229 29.1761 18.1491C29.1812 18.2753 29.1213 18.4041 28.9964 18.5356C28.8898 18.6477 28.7605 18.718 28.6085 18.7464C28.4638 18.7747 28.3098 18.7898 28.1463 18.7916C27.9865 18.7895 27.8379 18.795 27.7005 18.8079C27.5632 18.8209 27.4578 18.8661 27.3843 18.9434C27.3035 19.0284 27.2417 19.1592 27.199 19.3356C27.16 19.5082 27.1066 19.7154 27.0386 19.9572C26.9669 20.1952 26.8527 20.4585 26.696 20.7472C26.5468 21.0358 26.3197 21.3405 26.0148 21.6614C25.4159 22.2915 24.7818 22.7576 24.1125 23.0595C23.4431 23.3537 22.7608 23.4912 22.0657 23.472C21.3742 23.4489 20.6867 23.2747 20.0031 22.9493C19.3232 22.62 18.6733 22.1431 18.0533 21.5186C17.4521 20.9129 16.9971 20.2503 16.6883 19.5305C16.3794 18.8108 16.2172 18.076 16.2016 17.3263C16.1859 16.5689 16.3135 15.8349 16.5845 15.1241C16.8517 14.4095 17.2664 13.7565 17.8285 13.165C18.2106 12.763 18.553 12.4723 18.8558 12.293C19.1622 12.1098 19.4191 11.9789 19.6263 11.9001C19.8372 11.8174 19.9868 11.7297 20.075 11.6369C20.1742 11.5325 20.2231 11.4191 20.2218 11.2967C20.2203 11.1667 20.2208 11.0385 20.2232 10.9122C20.2255 10.7859 20.2781 10.6687 20.381 10.5604C20.4581 10.4792 20.5469 10.44 20.6472 10.4427C20.7475 10.4378 20.8762 10.4766 21.0331 10.559L23.5903 11.9659C23.7211 12.0372 23.8003 12.1396 23.8278 12.2732C23.8515 12.4031 23.8268 12.5296 23.7539 12.6528C23.6773 12.7876 23.5761 12.8786 23.4502 12.9259C23.3244 12.9731 23.1831 12.967 23.0264 12.9075C22.3733 12.6506 21.7903 12.5212 21.2775 12.5191C20.7646 12.517 20.3123 12.6138 19.9205 12.8094C19.5287 12.9973 19.1784 13.2536 18.8698 13.5784C18.4436 14.0268 18.1966 14.546 18.1287 15.136C18.0607 15.7183 18.1677 16.3331 18.4498 16.9804C18.7317 17.6201 19.1865 18.256 19.8139 18.8881C20.588 19.6678 21.3372 20.2183 22.0616 20.5394C22.7897 20.8567 23.4617 20.9661 24.0775 20.8675C24.6969 20.7651 25.229 20.48 25.6735 20.0123C25.8058 19.8731 25.9065 19.7362 25.9756 19.6015C26.0484 19.463 26.0897 19.3305 26.0995 19.2042C26.1092 19.0701 26.0929 18.9441 26.0508 18.8259C26.0049 18.704 25.9312 18.5919 25.8297 18.4897L24.4996 17.1498C24.417 17.0665 24.3348 17.0253 24.253 17.0262C24.1675 17.0233 24.0491 17.0705 23.8978 17.1678L23.5269 17.4072C23.394 17.4852 23.2737 17.5266 23.166 17.5316C23.0583 17.5366 22.9631 17.4975 22.8804 17.4142C22.7902 17.3234 22.7519 17.2167 22.7654 17.0941C22.7752 16.9677 22.8462 16.835 22.9785 16.6958L25.6899 13.8427C25.8295 13.6957 25.9587 13.6178 26.0776 13.6089C26.1963 13.5923 26.3007 13.6294 26.3909 13.7202C26.4661 13.7959 26.5079 13.8797 26.5163 13.9714C26.5247 14.0631 26.5018 14.1724 26.4474 14.2993L26.3274 14.5416C26.2693 14.6647 26.2408 14.7759 26.2419 14.8754C26.2466 14.971 26.296 15.0661 26.3899 15.1607L28.9656 17.7554Z" fill="#FEFCF4"/>
<path d="M29.3756 10.2338L31.3236 8.98855C31.6022 8.81044 31.7655 8.62696 31.8135 8.4381C31.8659 8.24636 31.834 7.96622 31.7176 7.59769C31.6736 7.44226 31.6675 7.31332 31.6991 7.21086C31.7352 7.10552 31.799 7.02041 31.8906 6.95552C32.0946 6.81881 32.2938 6.84969 32.4881 7.04814L34.2822 8.81519C34.4018 8.94123 34.4684 9.05685 34.4821 9.16204C34.4957 9.26722 34.4596 9.37256 34.3738 9.47804C34.288 9.58352 34.1896 9.65272 34.0787 9.68564C33.9723 9.71569 33.8551 9.70202 33.7271 9.64463C33.4629 9.51616 33.2415 9.43302 33.0631 9.39523C32.8819 9.35286 32.7092 9.35566 32.5452 9.4036C32.3811 9.45155 32.1912 9.54447 31.9755 9.68235L29.859 11.0353L29.3756 10.2338ZM24.3791 7.94169C24.3075 7.82294 24.2915 7.70346 24.3311 7.58325C24.3706 7.46304 24.4735 7.34979 24.6398 7.2435L29.7558 3.97304C29.94 3.85526 30.0782 3.73848 30.1702 3.62269C30.264 3.49945 30.3502 3.38425 30.4287 3.27708C30.509 3.16246 30.6166 3.06207 30.7514 2.97589C30.9177 2.8696 31.0724 2.83712 31.2156 2.87845C31.3589 2.91978 31.5266 3.02767 31.719 3.20211L33.4518 4.79005C33.5748 4.90121 33.6415 5.01683 33.6516 5.13689C33.6662 5.25409 33.6275 5.37058 33.5355 5.48638C33.4282 5.61823 33.3055 5.6935 33.1674 5.71221C33.0292 5.73091 32.8865 5.69558 32.7393 5.60623C32.3374 5.3632 31.9882 5.1815 31.6914 5.06113C31.3919 4.93619 31.1241 4.86377 30.888 4.84387C30.6519 4.82397 30.4279 4.85008 30.2161 4.92218C30.0061 4.98685 29.7842 5.09387 29.5506 5.24324L28.2227 6.0921L32.5648 13.2921C32.7135 13.5388 32.8916 13.6844 33.099 13.7289C33.3037 13.7689 33.5341 13.7071 33.7903 13.5433L34.5452 13.0607C34.8642 12.8568 35.1112 12.6262 35.286 12.3689C35.4653 12.1087 35.5755 11.7598 35.6167 11.3222C35.6623 10.8817 35.6425 10.2964 35.5571 9.56637C35.5411 9.40571 35.5666 9.27239 35.6334 9.16639C35.7002 9.0604 35.7989 8.98147 35.9295 8.92962C36.0781 8.86628 36.2119 8.86617 36.3309 8.9293C36.4472 8.98787 36.5305 9.10544 36.581 9.282L37.3362 11.9125C37.3972 12.1582 37.4131 12.3601 37.3838 12.518C37.359 12.6731 37.2545 12.8095 37.0703 12.9273C36.9534 13.0019 36.8309 13.0518 36.7028 13.0767C36.5747 13.1017 36.4375 13.1324 36.2914 13.1689C36.1453 13.2053 35.9824 13.281 35.8026 13.3959L30.4238 16.8344C30.2575 16.9407 30.1133 16.9855 29.9911 16.9687C29.8661 16.9473 29.7692 16.8795 29.7004 16.7653C29.5764 16.5598 29.5966 16.3507 29.761 16.1381L30.0308 15.8422C30.1184 15.7293 30.1699 15.6236 30.1852 15.5252C30.2023 15.4193 30.1792 15.3139 30.1159 15.2089L25.9183 8.24858C25.855 8.14354 25.7748 8.07772 25.6779 8.05113C25.5826 8.01709 25.4664 8.01543 25.3293 8.04614L24.9521 8.16391C24.694 8.22128 24.5031 8.14721 24.3791 7.94169Z" fill="#FEFCF4"/>
<path fill-rule="evenodd" clip-rule="evenodd" d="M34.5994 95.0619C34.3004 95.2845 33.999 95.4992 33.6953 95.7057C40.8904 99.7155 49.1784 102 58 102C85.6142 102 108 79.6142 108 52C108 24.3858 85.6142 2 58 2C52.6333 2 47.4641 2.84551 42.6183 4.41058C42.8092 4.69628 42.9981 4.98596 43.1849 5.27954C47.8588 3.79879 52.8361 3 58 3C85.062 3 107 24.938 107 52C107 79.062 85.062 101 58 101C49.5252 101 41.5528 98.8485 34.5994 95.0619Z" fill="#FEFCF4"/>
</svg>
