<svg width="109" height="100" viewBox="0 0 109 100" fill="none" xmlns="http://www.w3.org/2000/svg">
<path d="M17.6365 73.2826L18.3107 74.0336L10.8202 75.1165C10.4597 75.1706 10.1833 75.1565 9.99104 75.0743C9.7962 74.9874 9.62617 74.8135 9.48095 74.5525L8.16226 72.1827C8.0663 72.0102 8.02994 71.8626 8.05317 71.7398C8.07639 71.6171 8.14859 71.5219 8.26976 71.4545C8.37695 71.3949 8.48339 71.3723 8.58907 71.3867C8.6901 71.4037 8.78778 71.4531 8.88212 71.5349L9.15503 71.795C9.28721 71.9229 9.40718 71.9904 9.51494 71.9976C9.62269 72.0048 9.76252 71.9544 9.93443 71.8466L16.5199 67.5412C16.6825 67.4385 16.7845 67.3421 16.8258 67.2519C16.86 67.1597 16.863 67.039 16.8349 66.8898L16.7546 66.5316C16.7302 66.411 16.7387 66.3055 16.7801 66.2154C16.8214 66.1252 16.8934 66.0516 16.9959 65.9946C17.1124 65.9297 17.2336 65.9172 17.3596 65.957C17.4855 65.9968 17.5964 66.1029 17.6923 66.2754L19.719 69.9175C19.8175 70.0946 19.8552 70.2445 19.832 70.3673C19.8015 70.488 19.728 70.5808 19.6115 70.6456C19.509 70.7027 19.4098 70.7273 19.3139 70.7196C19.2134 70.7145 19.1072 70.6607 18.9953 70.5582L18.7293 70.2942C18.5951 70.1736 18.4787 70.1071 18.3803 70.0948C18.2746 70.0803 18.1498 70.1193 18.0059 70.2116L11.1688 74.7394L10.6741 73.9984L19.9392 72.633C20.2831 72.582 20.5282 72.5891 20.6743 72.6543C20.8158 72.722 20.9293 72.8328 21.0149 72.9866C21.0771 73.0985 21.1202 73.2088 21.1441 73.3175C21.168 73.4263 21.153 73.5475 21.0993 73.6812C21.0408 73.8175 20.9267 73.9908 20.757 74.2013L15.0234 81.2552L14.4224 80.6192L21.669 77.3375C21.8865 77.2348 22.0214 77.0987 22.0736 76.9293C22.1258 76.7599 22.1445 76.5633 22.1299 76.3395L22.09 76.0046C22.0858 75.9093 22.1023 75.8238 22.1396 75.7482C22.1722 75.6751 22.2327 75.6139 22.3213 75.5647C22.4471 75.4946 22.5706 75.4808 22.6919 75.5232C22.8105 75.561 22.9178 75.666 23.0138 75.8385L24.208 77.9846C24.304 78.157 24.3403 78.3046 24.3171 78.4274C24.2866 78.5481 24.2131 78.6409 24.0966 78.7058C23.9754 78.7732 23.8664 78.7911 23.7695 78.7596C23.668 78.7307 23.5617 78.6769 23.4508 78.5982L23.2464 78.4282C23.1002 78.3081 22.9439 78.2302 22.7776 78.1946C22.6041 78.1569 22.4073 78.1871 22.1872 78.2851L15.5021 81.3093C15.2401 81.4307 15.0664 81.5517 14.981 81.6725C14.8909 81.7958 14.8654 81.9474 14.9044 82.1271L14.9777 82.4892C15.0026 82.6218 14.9957 82.7355 14.9569 82.8303C14.9181 82.9251 14.8451 83.0023 14.738 83.062C14.4723 83.2098 14.2448 83.1136 14.0555 82.7734L12.7485 80.4246C12.6137 80.1822 12.5573 79.9603 12.5794 79.7588C12.5943 79.5552 12.7208 79.3108 12.9589 79.0258L17.6365 73.2826Z" fill="#FEFCF4"/>
<path d="M4.6913 61.4852C4.51566 60.6011 4.49894 59.7779 4.64112 59.0156C4.77703 58.2491 5.05665 57.5628 5.47999 56.9567C5.8981 56.3516 6.43899 55.8445 7.10265 55.4353C7.76107 55.0272 8.52708 54.7364 9.40068 54.5628C10.2115 54.4017 10.9913 54.3855 11.74 54.514C12.4877 54.6374 13.1699 54.8961 13.7865 55.2901C14.4031 55.6842 14.9249 56.2031 15.3518 56.8469C15.7788 57.4907 16.0791 58.2494 16.2526 59.123C16.4272 60.0019 16.4461 60.8219 16.3091 61.5832C16.1669 62.3455 15.8868 63.0292 15.4687 63.6343C15.0453 64.2404 14.505 64.7501 13.8476 65.1635C13.1839 65.5726 12.4153 65.864 11.5417 66.0376C10.7309 66.1986 9.9511 66.2149 9.20236 66.0863C8.45362 65.9578 7.77147 65.6991 7.1559 65.3102C6.53929 64.9162 6.0175 64.3972 5.59053 63.7534C5.16356 63.1096 4.86381 62.3535 4.6913 61.4852ZM11.8007 57.3241C11.0998 57.4633 10.4343 57.6581 9.80432 57.9083C9.1691 58.1595 8.59293 58.448 8.07581 58.7737C7.55243 59.0952 7.10903 59.4361 6.74562 59.7965C6.37698 60.1579 6.10666 60.5216 5.93466 60.8874C5.75638 61.2491 5.69998 61.5947 5.76545 61.9243C5.84444 62.3218 6.03021 62.6411 6.32277 62.882C6.61009 63.124 6.99115 63.2767 7.46593 63.3401C7.93548 63.4045 8.49197 63.3727 9.13539 63.2449C9.83636 63.1057 10.5045 62.9104 11.1397 62.6591C11.7697 62.4089 12.3463 62.1231 12.8697 61.8016C13.3879 61.4811 13.8313 61.1402 14.1999 60.7788C14.5686 60.4173 14.842 60.0558 15.0203 59.6941C15.1923 59.3283 15.2456 58.9805 15.1801 58.651C15.099 58.243 14.9154 57.9206 14.6291 57.6838C14.3365 57.4429 13.9528 57.2907 13.4781 57.2274C13.0033 57.164 12.4442 57.1962 11.8007 57.3241Z" fill="#FEFCF4"/>
<path d="M3.69342 49.4008L4.09763 43.8956C4.11404 43.6722 4.10643 43.4845 4.07481 43.3324C4.03788 43.18 4.00243 43.0437 3.96847 42.9235C3.92919 42.803 3.91424 42.6789 3.92361 42.5513C3.93923 42.3385 4.00414 42.1828 4.11833 42.0843C4.22759 41.98 4.40957 41.9051 4.66425 41.8596L7.32726 41.5338C7.51084 41.5098 7.65614 41.5339 7.76315 41.6059C7.87016 41.6779 7.9313 41.792 7.94657 41.9482C7.96794 42.0942 7.95059 42.2213 7.89452 42.3294C7.83351 42.4319 7.72296 42.5174 7.56285 42.5858C6.90802 42.8372 6.40524 43.057 6.05452 43.2452C5.7038 43.4333 5.45719 43.6238 5.31469 43.8165C5.16727 44.0036 5.08399 44.2274 5.06485 44.488L5.01388 45.1822L13.6466 45.816C13.769 45.825 13.8726 45.7979 13.9574 45.7346C14.037 45.6709 14.1056 45.5743 14.1632 45.4449L14.2945 45.0775C14.4032 44.8341 14.5773 44.7212 14.8167 44.7388C15.1145 44.7607 15.2494 44.9631 15.2213 45.3461L14.9096 49.5906C14.8952 49.7874 14.8445 49.9308 14.7577 50.0207C14.666 50.1048 14.5536 50.1421 14.4207 50.1323C14.1813 50.1147 14.0256 49.9776 13.9535 49.721L13.8773 49.3384C13.8396 49.1966 13.7859 49.091 13.7161 49.0217C13.6414 48.9467 13.5429 48.9047 13.4205 48.8957L4.78776 48.2619L4.73679 48.956C4.71804 49.2113 4.76774 49.4449 4.88587 49.6568C4.99869 49.8683 5.21483 50.0927 5.53431 50.3301C5.85378 50.5675 6.31907 50.8583 6.93016 51.2027C7.07894 51.2884 7.17583 51.3891 7.22082 51.5047C7.26049 51.62 7.25909 51.7482 7.21663 51.8895C7.1791 52.0365 7.10215 52.1378 6.98576 52.1934C6.86937 52.249 6.72193 52.2542 6.54343 52.209L3.95657 51.4977C3.71126 51.4155 3.54198 51.3175 3.44873 51.2037C3.35056 51.0842 3.30928 50.9181 3.3249 50.7053C3.33427 50.5777 3.36719 50.4571 3.42365 50.3436C3.4748 50.2297 3.52977 50.1 3.58858 49.9546C3.64207 49.8088 3.67701 49.6242 3.69342 49.4008Z" fill="#FEFCF4"/>
<path d="M5.72195 35.0903L7.54416 29.8797C7.61811 29.6683 7.65959 29.4851 7.66861 29.33C7.6726 29.1732 7.67382 29.0324 7.67228 28.9075C7.6657 28.7809 7.68354 28.6572 7.7258 28.5364C7.79622 28.335 7.89938 28.2016 8.03528 28.1361C8.16791 28.0639 8.36309 28.0389 8.62083 28.0612L11.2769 28.4392C11.4604 28.4638 11.5945 28.5248 11.6791 28.6222C11.7637 28.7196 11.793 28.8457 11.7671 29.0005C11.7498 29.147 11.7 29.2652 11.6177 29.3551C11.5322 29.4381 11.4032 29.4919 11.2308 29.5164C10.5331 29.5888 9.99046 29.6702 9.60288 29.7607C9.21529 29.8511 8.92763 29.9709 8.7399 30.1199C8.5489 30.2622 8.41027 30.4567 8.324 30.7033L8.09424 31.3603L16.265 34.2178C16.3808 34.2583 16.4879 34.259 16.5863 34.22C16.6797 34.1792 16.771 34.1037 16.8603 33.9937L17.0826 33.6731C17.251 33.4665 17.4484 33.4027 17.6749 33.482C17.9569 33.5805 18.0344 33.8111 17.9077 34.1736L16.5027 38.191C16.4376 38.3772 16.3514 38.5025 16.2442 38.5667C16.1337 38.6241 16.0156 38.6308 15.8897 38.5868C15.6632 38.5076 15.5485 38.3347 15.5456 38.0681L15.5716 37.6789C15.572 37.5321 15.5476 37.4162 15.4982 37.3312C15.4456 37.2393 15.3614 37.1732 15.2456 37.1327L7.07486 34.2752L6.8451 34.9322C6.76059 35.1739 6.74782 35.4123 6.80677 35.6477C6.86069 35.8812 7.01103 36.1541 7.25777 36.4664C7.50451 36.7787 7.87813 37.1806 8.37862 37.672C8.49997 37.7936 8.56733 37.916 8.5807 38.0393C8.58904 38.1609 8.55433 38.2844 8.47659 38.4097C8.40212 38.5419 8.30147 38.6197 8.17462 38.6431C8.04777 38.6666 7.90404 38.6332 7.74344 38.5432L5.43064 37.1835C5.21515 37.0403 5.07719 36.9017 5.01675 36.7675C4.95303 36.6266 4.95639 36.4554 5.02681 36.2541C5.06906 36.1332 5.13221 36.0254 5.21625 35.9305C5.29526 35.8338 5.38207 35.7229 5.47667 35.5978C5.56625 35.4709 5.648 35.3017 5.72195 35.0903Z" fill="#FEFCF4"/>
<path d="M12.9949 18.9458C13.509 18.2054 14.0896 17.6217 14.7369 17.1946C15.3828 16.76 16.0708 16.4846 16.8009 16.3682C17.5266 16.2488 18.2671 16.2858 19.0224 16.4791C19.7733 16.6694 20.5146 17.0186 21.2461 17.5266C21.9252 17.9981 22.4784 18.5479 22.9059 19.1759C23.3364 19.7995 23.6241 20.47 23.7688 21.1873C23.9135 21.9046 23.9025 22.6405 23.7358 23.3948C23.5691 24.1491 23.2317 24.8921 22.7237 25.6236C22.2127 26.3596 21.6357 26.9427 20.9929 27.3728C20.3456 27.8 19.6592 28.0732 18.9334 28.1926C18.2033 28.309 17.4613 28.2742 16.7073 28.0883C15.952 27.8949 15.2086 27.5443 14.477 27.0362C13.798 26.5647 13.2448 26.015 12.8173 25.387C12.3898 24.759 12.1021 24.0885 11.9544 23.3756C11.8097 22.6582 11.8207 21.9224 11.9874 21.1681C12.1541 20.4137 12.4899 19.673 12.9949 18.9458ZM20.9263 21.1711C20.3392 20.7635 19.737 20.4199 19.1194 20.1404C18.4975 19.8579 17.8898 19.6437 17.2963 19.4978C16.7015 19.3445 16.1483 19.2623 15.6366 19.2511C15.1205 19.2369 14.6711 19.2949 14.2885 19.4253C13.9044 19.5482 13.6166 19.7476 13.4249 20.0236C13.1937 20.3565 13.0931 20.7119 13.1229 21.0897C13.1483 21.4645 13.3031 21.8447 13.5873 22.2303C13.867 22.6129 14.2763 22.9913 14.8151 23.3654C15.4022 23.7731 16.0066 24.1181 16.6286 24.4007C17.2461 24.6802 17.8523 24.8966 18.4471 25.0499C19.0375 25.2001 19.5908 25.2824 20.1068 25.2966C20.6229 25.3108 21.0729 25.2565 21.457 25.1336C21.8397 25.0033 22.1268 24.8001 22.3185 24.5241C22.5558 24.1824 22.6602 23.8264 22.6317 23.456C22.6018 23.0781 22.4449 22.6964 22.1607 22.3108C21.8766 21.9252 21.4651 21.5453 20.9263 21.1711Z" fill="#FEFCF4"/>
<path fill-rule="evenodd" clip-rule="evenodd" d="M28.6027 88.4341C28.5197 88.7951 28.4353 89.1527 28.3497 89.5066C36.8149 96.0837 47.4503 100 59.0003 100C86.6146 100 109 77.6142 109 50C109 22.3858 86.6146 0 59.0003 0C46.3367 0 34.7727 4.70785 25.9629 12.4688C26.0847 12.8021 26.205 13.1411 26.3239 13.4857C34.9941 5.7215 46.4458 1 59.0003 1C86.0623 1 108 22.938 108 50C108 77.062 86.0623 99 59.0003 99C47.5169 99 36.9562 95.0498 28.6027 88.4341Z" fill="#FEFCF4"/>
</svg>
