<svg width="87" height="83" viewBox="0 0 87 83" fill="none" xmlns="http://www.w3.org/2000/svg">
<path d="M25.8329 76.4652L23.0047 74.3762L23.4359 73.7623L26.3026 75.8798L25.8329 76.4652ZM27.042 73.4347C27.1014 73.3543 27.1791 73.3097 27.275 73.301C27.3654 73.2931 27.47 73.3332 27.5891 73.4211L29.1238 74.5547C29.2396 74.6403 29.3087 74.7286 29.331 74.8196C29.3532 74.9107 29.3335 74.998 29.2717 75.0817C29.2289 75.1396 29.1776 75.1788 29.1177 75.1992C29.0547 75.2173 28.9707 75.2199 28.8658 75.207L28.694 75.1771C28.5506 75.1557 28.4195 75.1683 28.3006 75.2148C28.1785 75.2589 28.0029 75.3653 27.7737 75.5342L23.1612 78.8704C22.9861 78.9997 22.8809 79.1085 22.8456 79.1967C22.807 79.2826 22.829 79.3908 22.9115 79.5214C22.9699 79.6242 23.0005 79.714 23.0035 79.7908C23.0032 79.8652 22.9782 79.9362 22.9283 80.0037C22.8641 80.0906 22.7864 80.1352 22.6952 80.1374C22.6017 80.1429 22.4954 80.1017 22.3763 80.0138L19.6495 77.9996C19.5305 77.9117 19.4614 77.8234 19.4424 77.7347C19.4177 77.6469 19.4375 77.5596 19.5017 77.4727C19.554 77.4019 19.6172 77.3567 19.6915 77.3369C19.7625 77.3148 19.8474 77.3178 19.946 77.3459C20.0534 77.3755 20.1365 77.3673 20.1954 77.3212C20.2519 77.2784 20.3056 77.1788 20.3564 77.0224L22.2624 71.3216C22.3423 71.0922 22.387 70.9138 22.3965 70.7866C22.4028 70.6569 22.3719 70.5371 22.3039 70.4272C22.2366 70.3029 22.2019 70.2052 22.1997 70.134C22.1976 70.0628 22.2239 69.9902 22.2785 69.9162C22.338 69.8358 22.4156 69.7912 22.5116 69.7825C22.6051 69.777 22.7114 69.8182 22.8305 69.9062L25.1712 71.6351C25.2934 71.7254 25.3657 71.8161 25.388 71.9072C25.4046 71.999 25.3833 72.0852 25.3239 72.1656C25.274 72.2332 25.2159 72.2748 25.1496 72.2905C25.0801 72.3038 24.9948 72.298 24.8938 72.2732L24.6303 72.1755C24.5229 72.1459 24.4514 72.1652 24.4159 72.2335C24.3772 72.2993 24.3277 72.4169 24.2673 72.5862L22.1426 78.7446L21.8701 78.7298L26.9351 75.0639C27.0894 74.9492 27.2011 74.8452 27.27 74.7519C27.3389 74.6586 27.367 74.56 27.3542 74.4561C27.3415 74.3521 27.2954 74.2261 27.2159 74.0779L27.0679 73.8641C27.0217 73.7853 26.9948 73.7107 26.9871 73.6403C26.9738 73.5708 26.9921 73.5023 27.042 73.4347Z" fill="#FEFCF4"/>
<path d="M21.613 69.4511C21.4722 69.5632 21.3167 69.567 21.1464 69.4623L20.9059 69.2856C20.8154 69.2298 20.7334 69.2006 20.6596 69.198C20.5803 69.1947 20.5047 69.2217 20.4327 69.279L15.6646 73.0773C15.5927 73.1346 15.551 73.201 15.5396 73.2766C15.5226 73.3515 15.5311 73.4393 15.5653 73.54L15.6837 73.8138C15.7477 74.0032 15.7093 74.154 15.5685 74.2662C15.4871 74.331 15.4006 74.3539 15.3088 74.335C15.217 74.3161 15.1262 74.2503 15.0365 74.1376L12.8832 71.4345C12.4221 70.8557 12.0894 70.2615 11.8852 69.652C11.6778 69.045 11.5947 68.4464 11.6359 67.8561C11.6771 67.2659 11.8397 66.7093 12.1238 66.1864C12.4054 65.6604 12.8043 65.1917 13.3205 64.7805C13.9118 64.3095 14.5484 64.03 15.2301 63.9421C15.9093 63.851 16.585 63.9546 17.2572 64.2527C17.9263 64.5533 18.5412 65.0556 19.1019 65.7595L21.6067 68.9038C21.6964 69.0165 21.7402 69.1196 21.7382 69.2133C21.733 69.3095 21.6913 69.3888 21.613 69.4511ZM18.7033 66.4146C18.4291 66.0705 18.0982 65.838 17.7105 65.7173C17.3228 65.5965 16.883 65.6094 16.3911 65.7558C15.8991 65.9022 15.3622 66.2072 14.7803 66.6707C14.3266 67.0321 13.9598 67.4062 13.6797 67.7929C13.3965 68.1821 13.2058 68.5718 13.1076 68.9621C13.0062 69.3548 12.9982 69.7396 13.0836 70.1165C13.1634 70.4927 13.3379 70.8498 13.6071 71.1877L13.8837 71.5349L18.8583 67.5722C19.021 67.4426 19.105 67.3041 19.1103 67.1567C19.1131 67.0061 19.0472 66.8464 18.9126 66.6774L18.7033 66.4146Z" fill="#FEFCF4"/>
<path d="M6.18878 59.6748C6.09346 59.7164 6.0047 59.718 5.92252 59.6797C5.83873 59.6377 5.76725 59.5488 5.70808 59.4132L4.94518 57.6643C4.88601 57.5287 4.87032 57.4177 4.89813 57.3314C4.92434 57.2414 4.9851 57.1756 5.08043 57.134C5.15009 57.1036 5.21755 57.0982 5.2828 57.1177C5.34439 57.1389 5.41454 57.1846 5.49326 57.255L5.64942 57.4029C5.76246 57.502 5.8942 57.5689 6.04464 57.6037C6.19141 57.64 6.40442 57.6431 6.68365 57.6129L12.3938 57.0924C12.5702 57.0765 12.709 57.0596 12.8103 57.0416C12.9099 57.02 13.0074 56.9883 13.1027 56.9468L13.3832 56.8244C13.4785 56.7828 13.5673 56.7812 13.6495 56.8195C13.7264 56.8558 13.7848 56.9198 13.8248 57.0114L14.5613 58.6998C14.6013 58.7914 14.6084 58.8778 14.5827 58.9589C14.5517 59.0378 14.483 59.1005 14.3767 59.1469L14.1017 59.2669C14.0394 59.294 13.9745 59.3354 13.9071 59.391C13.8361 59.4482 13.7601 59.5141 13.6792 59.5887L8.99151 63.8788C8.88605 63.9772 8.81621 64.0622 8.78201 64.1339C8.74414 64.2071 8.72423 64.2965 8.72229 64.4021L8.73236 64.6203C8.72667 64.7973 8.6505 64.9178 8.50385 64.9818C8.40852 65.0234 8.31897 65.0232 8.23519 64.9812C8.1514 64.9392 8.07992 64.8504 8.02075 64.7147L6.75646 61.8165C6.69568 61.6771 6.6792 61.5643 6.707 61.478C6.73481 61.3917 6.79637 61.3277 6.8917 61.2861C6.96869 61.2526 7.04062 61.2474 7.10747 61.2706C7.16906 61.2917 7.23738 61.3383 7.31243 61.4103L7.51247 61.6438C7.59072 61.7231 7.67577 61.758 7.76762 61.7485C7.85421 61.7369 7.96801 61.6676 8.109 61.5407L12.6112 57.4557L13.3897 57.8297L6.94322 58.4031C6.73798 58.4228 6.58916 58.4768 6.49677 58.5651C6.4007 58.655 6.35336 58.8066 6.35473 59.0198L6.3809 59.2899C6.38309 59.3849 6.37178 59.464 6.34698 59.5272C6.32217 59.5904 6.26944 59.6396 6.18878 59.6748Z" fill="#FEFCF4"/>
<path d="M8.45446 52.1062L7.90175 48.6339L8.63959 48.4982L9.19985 52.0179L8.45446 52.1062ZM11.4411 50.7924C11.5398 50.7766 11.6265 50.7993 11.701 50.8603C11.7709 50.9181 11.8175 51.02 11.8408 51.1662L12.1407 53.0504C12.1634 53.1926 12.1507 53.304 12.1028 53.3846C12.0548 53.4651 11.9795 53.5135 11.8768 53.5299C11.8057 53.5412 11.7417 53.5332 11.6846 53.5058C11.627 53.4745 11.5653 53.4175 11.4995 53.3348L11.3979 53.193C11.3106 53.0773 11.2083 52.9943 11.091 52.9441C10.973 52.89 10.7731 52.8428 10.4913 52.8027L4.86306 51.9488C4.64759 51.9183 4.49631 51.9221 4.40923 51.9603C4.32151 51.9945 4.26132 52.0871 4.22866 52.2381C4.19823 52.3523 4.15716 52.4378 4.10546 52.4947C4.05312 52.5475 3.98547 52.5806 3.90252 52.5938C3.79586 52.6108 3.70922 52.5881 3.6426 52.5258C3.57203 52.4641 3.52511 52.3602 3.50184 52.2141L2.96894 48.8662C2.94567 48.72 2.95832 48.6087 3.00689 48.5321C3.05087 48.4522 3.12619 48.4037 3.23285 48.3868C3.31976 48.3729 3.39661 48.385 3.46341 48.423C3.52958 48.457 3.58799 48.5186 3.63863 48.6077C3.69448 48.7041 3.75953 48.7566 3.83378 48.765C3.90408 48.7741 4.01217 48.7407 4.15806 48.6648L9.51352 45.935C9.73132 45.8274 9.8882 45.7315 9.98417 45.6474C10.0795 45.5593 10.1414 45.4523 10.17 45.3262C10.2091 45.1904 10.2529 45.0963 10.3013 45.0441C10.3497 44.9918 10.4193 44.9584 10.5101 44.944C10.6089 44.9283 10.6955 44.9509 10.77 45.012C10.8406 45.0736 10.8875 45.1776 10.9108 45.3237L11.3683 48.1975C11.3921 48.3476 11.3801 48.463 11.3322 48.5435C11.2797 48.6207 11.204 48.6672 11.1053 48.6829C11.0223 48.6961 10.9517 48.6851 10.8934 48.6498C10.8345 48.6106 10.7778 48.5467 10.7232 48.4582L10.6037 48.2038C10.5479 48.1074 10.4834 48.0711 10.4102 48.0949C10.3364 48.1147 10.2187 48.1638 10.057 48.2422L4.22479 51.1451L4.04082 50.9435L10.2228 51.8794C10.4133 51.9058 10.5658 51.9098 10.6804 51.8916C10.795 51.8734 10.8841 51.8227 10.9478 51.7397C11.0116 51.6566 11.0671 51.5344 11.1143 51.3729L11.1585 51.1168C11.1809 51.0282 11.214 50.9561 11.2578 50.9005C11.297 50.8416 11.3581 50.8056 11.4411 50.7924Z" fill="#FEFCF4"/>
<path d="M10.6606 41.3297C10.7602 41.339 10.8365 41.3822 10.8896 41.4595C10.9431 41.5327 10.965 41.6432 10.9553 41.7909L10.7762 43.7206C10.7585 43.8676 10.7165 43.9742 10.6501 44.0404C10.5837 44.1065 10.5007 44.135 10.4011 44.1257C10.2298 44.1098 10.1118 43.9964 10.047 43.7855L9.9942 43.5758C9.93553 43.3855 9.86172 43.2501 9.77279 43.1696C9.68385 43.089 9.53384 43.0389 9.32275 43.0193L4.48355 42.5702C4.34415 42.5572 4.23314 42.563 4.15052 42.5875C4.06828 42.608 3.95246 42.6655 3.80308 42.7601L3.13086 43.1858C3.02028 43.2519 2.93582 43.2962 2.87747 43.319C2.81514 43.3413 2.75211 43.3495 2.68839 43.3436C2.58882 43.3343 2.51628 43.2935 2.47079 43.2209C2.42131 43.1481 2.40175 43.0559 2.4121 42.9443L2.57014 41.2417C2.5827 41.1062 2.61695 40.9969 2.67288 40.9137C2.72918 40.8266 2.8253 40.7431 2.96126 40.6633L9.16853 36.9551L10.0054 37.3522L4.49709 36.8409C4.29396 36.8221 4.14165 36.8401 4.04014 36.8949C3.93466 36.9494 3.83303 37.0705 3.73526 37.2583L3.64471 37.4548C3.53425 37.6494 3.39737 37.7391 3.23407 37.724C3.13052 37.7144 3.0522 37.6709 2.99911 37.5937C2.94602 37.5165 2.92613 37.4061 2.93944 37.2628L3.11854 35.3331C3.13222 35.1857 3.17226 35.0789 3.23865 35.0128C3.30505 34.9466 3.39003 34.9184 3.49358 34.928C3.66086 34.9435 3.77889 35.0569 3.84766 35.2682L3.9005 35.4779C3.95519 35.6678 4.02899 35.8032 4.12191 35.8841C4.21084 35.9647 4.36085 36.0148 4.57195 36.0344L9.48881 36.4907C9.6322 36.504 9.75877 36.5037 9.86852 36.4898C9.9743 36.4755 10.074 36.4406 10.1675 36.385L10.7037 36.0612C10.8277 35.9803 10.9203 35.9346 10.9816 35.9243C11.0431 35.9099 11.1058 35.9057 11.1695 35.9116C11.2691 35.9208 11.3456 35.9621 11.3991 36.0353C11.4525 36.1086 11.4737 36.2049 11.4626 36.3244L11.2802 38.29C11.2595 38.513 11.1595 38.6162 10.9803 38.5996C10.9126 38.5933 10.8456 38.6012 10.7793 38.6231C10.713 38.6451 10.5904 38.71 10.4117 38.818L4.31972 42.4525L3.9311 41.7054L9.40358 42.2133C9.59874 42.2315 9.74907 42.2133 9.85455 42.1588C9.95643 42.1 10.0581 41.9788 10.1594 41.7954L10.25 41.5989C10.3565 41.4039 10.4933 41.3142 10.6606 41.3297Z" fill="#FEFCF4"/>
<path d="M4.25823 30.6274L5.65424 26.7299C5.71089 26.5718 5.74304 26.4346 5.75068 26.3183C5.75456 26.2007 5.75627 26.0951 5.75581 26.0015C5.7516 25.9065 5.76567 25.8138 5.79805 25.7235C5.852 25.5728 5.93012 25.4733 6.03241 25.425C6.13228 25.3716 6.27881 25.3539 6.47198 25.3721L8.46188 25.6706C8.59936 25.6901 8.69954 25.7366 8.76244 25.8101C8.82533 25.8836 8.84663 25.9784 8.82635 26.0943C8.81252 26.2041 8.7745 26.2924 8.71229 26.3594C8.64765 26.4212 8.55062 26.4608 8.42118 26.4782C7.89752 26.5286 7.4901 26.5866 7.19891 26.6522C6.90771 26.7179 6.6913 26.8061 6.54967 26.9168C6.40562 27.0224 6.30055 27.1675 6.23446 27.352L6.05844 27.8434L12.1702 30.0325C12.2568 30.0636 12.3371 30.0647 12.4112 30.036C12.4814 30.0059 12.5504 29.9499 12.618 29.8679L12.7865 29.6287C12.9139 29.4746 13.0623 29.428 13.2318 29.4886C13.4427 29.5642 13.4996 29.7375 13.4024 30.0086L12.3261 33.0137C12.2762 33.153 12.2109 33.2465 12.1301 33.294C12.0469 33.3365 11.9582 33.3408 11.8641 33.3071C11.6946 33.2464 11.6096 33.1161 11.609 32.9162L11.6306 32.6244C11.6318 32.5143 11.6141 32.4273 11.5776 32.3632C11.5387 32.294 11.4759 32.2439 11.3893 32.2129L5.27748 30.0238L5.10146 30.5152C5.03672 30.696 5.02579 30.8748 5.06868 31.0516C5.1078 31.227 5.21901 31.4326 5.4023 31.6682C5.58559 31.9038 5.86352 32.2073 6.23611 32.5787C6.32644 32.6705 6.37626 32.7627 6.3856 32.8553C6.39116 32.9465 6.36444 33.0389 6.30543 33.1325C6.24883 33.2312 6.1729 33.289 6.07764 33.3058C5.98237 33.3227 5.87477 33.2969 5.75482 33.2284L4.02795 32.1956C3.86714 32.0871 3.76445 31.9823 3.71988 31.8813C3.67289 31.7753 3.67637 31.6469 3.73032 31.4963C3.7627 31.4059 3.81066 31.3254 3.87423 31.2547C3.93403 31.1826 3.99976 31.1 4.07142 31.0067C4.13931 30.912 4.20158 30.7856 4.25823 30.6274Z" fill="#FEFCF4"/>
<path d="M12.631 23.3816L14.5617 20.4432L15.1984 20.84L13.2413 23.8185L12.631 23.3816ZM15.7232 24.4227C15.8068 24.4776 15.8555 24.5527 15.8695 24.648C15.8823 24.7378 15.8481 24.8445 15.7668 24.9682L14.719 26.5628C14.64 26.6831 14.5556 26.7569 14.4659 26.7842C14.3762 26.8114 14.2879 26.7964 14.201 26.7393C14.1408 26.6998 14.0989 26.6507 14.0752 26.5921C14.0537 26.5301 14.0465 26.4464 14.0536 26.3409L14.074 26.1677C14.0875 26.0234 14.0678 25.8932 14.0149 25.777C13.9641 25.6576 13.8482 25.488 13.667 25.2685L10.0829 20.8458C9.94419 20.6781 9.82981 20.579 9.73975 20.5485C9.65188 20.5147 9.545 20.5426 9.41913 20.6322C9.31971 20.6961 9.23174 20.7317 9.15524 20.7388C9.08093 20.7427 9.00868 20.7215 8.93848 20.6754C8.84822 20.6161 8.79946 20.541 8.7922 20.45C8.78159 20.3569 8.81692 20.2485 8.89819 20.1248L10.7598 17.2917C10.841 17.168 10.9254 17.0942 11.0129 17.0703C11.0992 17.0409 11.1875 17.0558 11.2778 17.1152C11.3513 17.1635 11.4 17.2242 11.4238 17.2972C11.4498 17.367 11.4515 17.4518 11.4288 17.5518C11.4051 17.6607 11.4179 17.7433 11.4671 17.7995C11.5129 17.8536 11.6153 17.9017 11.7743 17.9439L17.5711 19.5344C17.8045 19.6017 17.985 19.6365 18.1126 19.639C18.2424 19.6381 18.3603 19.6007 18.4663 19.5268C18.5868 19.4528 18.6825 19.4127 18.7534 19.4067C18.8244 19.4007 18.8983 19.4229 18.9752 19.4735C19.0588 19.5284 19.1075 19.6035 19.1215 19.6988C19.1321 19.7919 19.0968 19.9003 19.0155 20.024L17.4175 22.456C17.334 22.583 17.2474 22.6602 17.1578 22.6874C17.0669 22.7091 16.9797 22.6925 16.8962 22.6376C16.826 22.5914 16.7812 22.5357 16.7619 22.4704C16.7448 22.4017 16.7459 22.3163 16.7652 22.2141L16.8483 21.9456C16.872 21.8367 16.8487 21.7664 16.7786 21.7347C16.7107 21.6997 16.5906 21.6566 16.4183 21.6056L10.1526 19.8219L10.1524 19.549L14.0906 24.4053C14.2136 24.5531 14.3236 24.6589 14.4205 24.7226C14.5175 24.7863 14.6175 24.8089 14.7205 24.7905C14.8236 24.772 14.9469 24.7191 15.0906 24.6316L15.2959 24.4721C15.3721 24.4217 15.4451 24.3907 15.5149 24.3791C15.5836 24.362 15.653 24.3766 15.7232 24.4227Z" fill="#FEFCF4"/>
<path d="M24.5724 14.4177C24.6708 14.5228 24.7184 14.6234 24.7153 14.7196C24.7151 14.8129 24.6653 14.9061 24.5661 14.9991C24.4814 15.0784 24.3808 15.126 24.2643 15.142C24.1534 15.1582 24.0372 15.1629 23.9157 15.1561C23.7942 15.1493 23.6811 15.1484 23.5762 15.1535C23.4742 15.1558 23.3941 15.1843 23.3357 15.239C23.2685 15.3019 23.2159 15.3978 23.1777 15.5267C23.1424 15.6529 23.0951 15.8042 23.0355 15.9805C22.9732 16.154 22.8792 16.3461 22.7535 16.5571C22.6306 16.7653 22.4481 16.9829 22.2057 17.2099C21.7299 17.6556 21.2326 17.9789 20.7138 18.1799C20.1922 18.3779 19.6675 18.4583 19.1395 18.4213C18.6117 18.3785 18.0932 18.2257 17.5839 17.9629C17.0775 17.6973 16.5974 17.3221 16.1435 16.8375C15.7087 16.3733 15.3855 15.8704 15.174 15.3286C14.9625 14.7868 14.8617 14.2373 14.8714 13.6801C14.8841 13.1202 15.0049 12.5823 15.2341 12.0662C15.4661 11.5474 15.8055 11.0789 16.2521 10.6605C16.5528 10.3788 16.8212 10.1768 17.0573 10.0543C17.2963 9.92915 17.4973 9.83951 17.6604 9.78541C17.8234 9.73132 17.94 9.67146 18.0101 9.60583C18.0889 9.532 18.1298 9.44986 18.1328 9.35939C18.1359 9.26328 18.1404 9.16862 18.1463 9.07543C18.1522 8.98223 18.1945 8.89872 18.2733 8.82489C18.3346 8.76747 18.4049 8.74005 18.484 8.74264C18.5604 8.74231 18.657 8.77518 18.7737 8.84126L20.6685 9.96023C20.7657 10.0172 20.8226 10.0954 20.8391 10.195C20.8557 10.2946 20.8342 10.3887 20.7747 10.4773C20.7065 10.5741 20.6251 10.6394 20.5306 10.6731C20.4334 10.7039 20.3261 10.6947 20.2089 10.6456C19.7178 10.4314 19.2787 10.3166 18.8915 10.3011C18.5072 10.2829 18.1629 10.3395 17.8587 10.4711C17.5546 10.597 17.2799 10.7748 17.0347 11.0045C16.6931 11.3244 16.4856 11.6996 16.4121 12.1302C16.3415 12.5581 16.4029 13.0157 16.5964 13.5031C16.79 13.9849 17.1152 14.4695 17.5718 14.9571C18.1324 15.5555 18.6844 15.9839 19.2278 16.2423C19.7711 16.5006 20.2786 16.6035 20.7501 16.551C21.2245 16.4958 21.6383 16.3027 21.9916 15.9719C22.0966 15.8734 22.1777 15.7756 22.2346 15.6784C22.2945 15.5785 22.3302 15.482 22.3417 15.389C22.3534 15.2904 22.3452 15.1967 22.317 15.108C22.286 15.0165 22.2336 14.9313 22.1598 14.8525L21.2 13.8277C21.1371 13.7606 21.0745 13.726 21.0123 13.724C20.9474 13.719 20.8558 13.75 20.7376 13.8169L20.4478 13.9814C20.347 14.0376 20.2555 14.0657 20.1734 14.0658C20.0886 14.0631 20.0175 14.031 19.9601 13.9697C19.8917 13.8967 19.8647 13.8152 19.8789 13.7251C19.8905 13.6321 19.9502 13.535 20.0582 13.4338L22.2084 11.4199C22.3193 11.316 22.4216 11.2613 22.5151 11.2559C22.606 11.2476 22.6842 11.2784 22.7498 11.3485C22.8072 11.4098 22.8362 11.4758 22.8367 11.5466C22.8402 11.6146 22.8191 11.6946 22.7737 11.7865L22.679 11.9574C22.6278 12.0491 22.6011 12.1318 22.5987 12.2053C22.5965 12.2731 22.6309 12.345 22.702 12.4209L24.5724 14.4177Z" fill="#FEFCF4"/>
<path d="M25.5974 8.45856L27.1063 7.60426C27.3221 7.48208 27.4507 7.35185 27.4919 7.2136C27.5366 7.07336 27.5196 6.86467 27.4408 6.58751C27.4115 6.4708 27.4102 6.37504 27.4368 6.30022C27.4668 6.22344 27.5174 6.16262 27.5886 6.11775C27.7467 6.02362 27.8969 6.05349 28.0392 6.20736L29.354 7.57972C29.4414 7.67731 29.4889 7.76532 29.4965 7.84374C29.5042 7.92216 29.4741 7.99894 29.4063 8.07409C29.3385 8.14923 29.2622 8.19705 29.1773 8.21755C29.0958 8.23608 29.0073 8.22184 28.9118 8.17482C28.7147 8.07034 28.549 8.00097 28.4147 7.96669C28.2784 7.92894 28.1475 7.92495 28.0218 7.95471C27.8962 7.98447 27.7498 8.04665 27.5827 8.14125L25.9432 9.06945L25.5974 8.45856ZM21.8682 6.58466C21.8169 6.49416 21.8078 6.40507 21.8409 6.31738C21.874 6.2297 21.955 6.1494 22.0838 6.07648L26.0467 3.83283C26.1894 3.75203 26.2972 3.67035 26.3699 3.58778C26.4442 3.49976 26.5125 3.41743 26.5748 3.34077C26.6387 3.25867 26.7228 3.18805 26.8272 3.12893C26.956 3.05602 27.0742 3.03738 27.1817 3.07304C27.2892 3.10869 27.4136 3.19453 27.555 3.33054L28.8279 4.56802C28.9183 4.65471 28.9659 4.74272 28.9705 4.83204C28.9786 4.9194 28.9462 5.00436 28.8735 5.08692C28.7887 5.18085 28.6938 5.23232 28.5885 5.24133C28.4833 5.25034 28.376 5.21915 28.2667 5.14776C27.9683 4.95358 27.7081 4.80667 27.4863 4.70706C27.2624 4.60396 27.0612 4.54089 26.8827 4.51786C26.7042 4.49482 26.5337 4.5063 26.3713 4.55229C26.2104 4.59283 26.0394 4.66433 25.8584 4.76681L24.8298 5.34916L27.9367 10.8367C28.0431 11.0247 28.1743 11.1388 28.3305 11.1791C28.4846 11.216 28.6609 11.1782 28.8593 11.0659L29.4441 10.7348C29.6912 10.5949 29.8844 10.4327 30.0235 10.2482C30.1662 10.0617 30.2587 9.80704 30.3012 9.48422C30.3472 9.15943 30.3471 8.72505 30.3012 8.1811C30.2932 8.0615 30.3159 7.9636 30.3693 7.88741C30.4227 7.81121 30.4996 7.7562 30.6 7.72236C30.7142 7.68065 30.8157 7.68527 30.9043 7.73623C30.9909 7.78371 31.0511 7.87375 31.0848 8.00635L31.5897 9.98202C31.6296 10.1662 31.6365 10.3164 31.6102 10.4324C31.5874 10.5464 31.5047 10.6438 31.362 10.7246C31.2715 10.7758 31.1773 10.8084 31.0795 10.8224C30.9817 10.8364 30.877 10.8544 30.7653 10.8763C30.6535 10.8981 30.5281 10.9485 30.3888 11.0273L26.2223 13.3863C26.0935 13.4592 25.983 13.4873 25.8907 13.4705C25.7966 13.4503 25.7248 13.3967 25.6756 13.3097C25.5869 13.153 25.6076 12.9988 25.7377 12.847L25.9499 12.6372C26.0192 12.5566 26.0609 12.4802 26.0751 12.4078C26.0908 12.3299 26.0759 12.251 26.0306 12.1709L23.0273 6.86613C22.9819 6.78607 22.9229 6.73448 22.85 6.71137C22.7787 6.68281 22.6906 6.67749 22.5859 6.69543L22.2968 6.76945C22.0997 6.8029 21.9568 6.7413 21.8682 6.58466Z" fill="#FEFCF4"/>
<path fill-rule="evenodd" clip-rule="evenodd" d="M34.594 78.9853C34.4919 79.3048 34.3887 79.6219 34.2842 79.9364C38.279 81.2748 42.5549 82 47.0003 82C69.0917 82 87.0003 64.0914 87.0003 42C87.0003 19.9086 69.0917 2 47.0003 2C42.8707 2 38.8873 2.62579 35.1397 3.78772C35.234 4.10568 35.3271 4.42591 35.419 4.74835C39.0779 3.61206 42.9676 3 47.0003 3C68.5394 3 86.0003 20.4609 86.0003 42C86.0003 63.5391 68.5394 81 47.0003 81C42.6631 81 38.4912 80.292 34.594 78.9853Z" fill="#FEFCF4"/>
</svg>
