<svg width="87" height="80" viewBox="0 0 87 80" fill="none" xmlns="http://www.w3.org/2000/svg">
<path d="M12.7873 57.8747L13.274 58.4544L7.63213 59.0792C7.36055 59.1108 7.15374 59.0934 7.01169 59.0269C6.86781 58.957 6.7447 58.8223 6.64235 58.6231L5.713 56.8138C5.64537 56.6822 5.6218 56.5706 5.64227 56.4791C5.66275 56.3877 5.71924 56.3182 5.81175 56.2707C5.89358 56.2286 5.97393 56.2144 6.05279 56.2278C6.12809 56.2431 6.20008 56.2826 6.26875 56.3462L6.46684 56.548C6.56273 56.6471 6.65097 56.7007 6.73156 56.7088C6.81215 56.7169 6.91822 56.6826 7.04977 56.6061L12.0936 53.5431C12.218 53.4702 12.2968 53.4005 12.3301 53.3339C12.358 53.2656 12.3633 53.1752 12.3459 53.0627L12.2947 52.7922C12.2794 52.7012 12.2884 52.6224 12.3216 52.5558C12.3549 52.4893 12.4107 52.4359 12.489 52.3957C12.5779 52.35 12.6691 52.3436 12.7625 52.3766C12.8559 52.4096 12.9364 52.4919 13.004 52.6235L14.4323 55.4041C14.5017 55.5394 14.5262 55.6527 14.5057 55.7441C14.4799 55.8339 14.4225 55.9016 14.3335 55.9473C14.2552 55.9875 14.1803 56.0035 14.1086 55.9953C14.0334 55.989 13.9551 55.946 13.8738 55.8664L13.681 55.6619C13.5834 55.5681 13.4979 55.5154 13.4244 55.5037C13.3455 55.4902 13.251 55.5163 13.1408 55.5819L7.90286 58.8053L7.55053 58.2375L14.5296 57.4452C14.7887 57.4155 14.9722 57.427 15.0801 57.4795C15.1844 57.5338 15.2668 57.6196 15.3271 57.7371C15.3709 57.8225 15.4005 57.9062 15.4157 57.9883C15.4309 58.0705 15.4166 58.161 15.373 58.2598C15.3258 58.3605 15.2359 58.4876 15.1034 58.6411L10.6297 63.7856L10.195 63.2939L15.7089 61.0148C15.8745 60.9432 15.9789 60.8446 16.0223 60.7189C16.0656 60.5932 16.0846 60.4463 16.0792 60.2782L16.0577 60.0261C16.0569 59.9546 16.0714 59.8909 16.1012 59.8352C16.1275 59.7812 16.1744 59.7369 16.242 59.7021C16.3381 59.6528 16.431 59.6455 16.5208 59.6803C16.6088 59.7116 16.6867 59.793 16.7543 59.9247L17.5959 61.5631C17.6635 61.6948 17.6871 61.8063 17.6666 61.8978C17.6408 61.9875 17.5834 62.0552 17.4944 62.1009C17.4019 62.1485 17.3197 62.1592 17.2479 62.1331C17.1725 62.1089 17.0942 62.0659 17.013 62.0042L16.864 61.8716C16.7574 61.778 16.6423 61.7157 16.5185 61.6849C16.3893 61.6523 16.241 61.67 16.0736 61.738L10.9872 63.8381C10.7877 63.9225 10.6545 64.009 10.5875 64.0974C10.5169 64.1876 10.494 64.3005 10.5187 64.4362L10.5646 64.7094C10.58 64.8094 10.572 64.8945 10.5405 64.9646C10.5091 65.0347 10.4525 65.0908 10.3706 65.1328C10.1678 65.237 9.99971 65.1592 9.86629 64.8995L8.94517 63.1062C8.85013 62.9212 8.81342 62.7534 8.83504 62.6029C8.85128 62.4507 8.95219 62.2707 9.13777 62.063L12.7873 57.8747Z" fill="#FEFCF4"/>
<path d="M3.16926 48.4329C3.05278 47.767 3.0544 47.1495 3.17413 46.5804C3.28922 46.008 3.51069 45.4982 3.83854 45.051C4.16245 44.6045 4.57673 44.2336 5.08139 43.9382C5.5821 43.6435 6.16146 43.4386 6.81947 43.3235C7.4302 43.2167 8.01516 43.2179 8.57435 43.3272C9.13285 43.4326 9.63988 43.6383 10.0954 43.9443C10.551 44.2504 10.9333 44.6485 11.2424 45.1386C11.5514 45.6287 11.7635 46.2027 11.8786 46.8607C11.9944 47.5227 11.9944 48.1379 11.8786 48.7063C11.7589 49.2755 11.5371 49.7833 11.2132 50.2298C10.8853 50.6769 10.4714 51.0498 9.97138 51.3485C9.46673 51.6438 8.8854 51.8491 8.22739 51.9642C7.61666 52.071 7.0317 52.0698 6.47251 51.9605C5.91331 51.8512 5.40628 51.6455 4.95142 51.3434C4.49586 51.0373 4.11355 50.6392 3.80448 50.1491C3.49542 49.6591 3.28368 49.087 3.16926 48.4329ZM8.57154 45.4352C8.04355 45.5276 7.54123 45.6622 7.06456 45.8389C6.58395 46.0164 6.14698 46.2228 5.75364 46.4581C5.35567 46.6901 5.01734 46.9381 4.73866 47.2021C4.45603 47.4667 4.24709 47.7348 4.11182 48.0061C3.97193 48.2742 3.92369 48.5324 3.96711 48.7806C4.0195 49.0801 4.15329 49.3227 4.36851 49.5084C4.57979 49.6947 4.86287 49.8158 5.21778 49.8715C5.56874 49.9278 5.98654 49.9136 6.47118 49.8289C6.99917 49.7365 7.50346 49.6016 7.98407 49.4241C8.46074 49.2473 8.89806 49.0429 9.29603 48.8109C9.69006 48.5795 10.0284 48.3315 10.311 48.0669C10.5936 47.8022 10.8049 47.5358 10.9448 47.2677C11.0801 46.9963 11.126 46.7365 11.0825 46.4883C11.0288 46.181 10.8966 45.9361 10.686 45.7536C10.4708 45.5679 10.1858 45.4473 9.83085 45.3916C9.47595 45.3359 9.05618 45.3504 8.57154 45.4352Z" fill="#FEFCF4"/>
<path d="M2.53895 38.5882L2.92156 34.4659C2.93709 34.2986 2.93409 34.1577 2.91258 34.0432C2.88709 33.9284 2.86247 33.8257 2.83874 33.7351C2.81103 33.6442 2.80161 33.5509 2.81048 33.4553C2.82527 33.296 2.87619 33.1802 2.96324 33.1079C3.04668 33.0313 3.18421 32.9778 3.37584 32.9474L5.37744 32.7415C5.51544 32.7262 5.62405 32.7463 5.70325 32.8018C5.78246 32.8574 5.82666 32.9439 5.83585 33.0612C5.84977 33.171 5.83492 33.266 5.79131 33.3463C5.74409 33.4223 5.65995 33.4848 5.5389 33.5338C5.04424 33.7128 4.66405 33.8704 4.39834 34.0064C4.13264 34.1424 3.94496 34.2817 3.83533 34.4242C3.72208 34.5623 3.6564 34.7289 3.63828 34.9241L3.59004 35.4439L10.0543 36.0438C10.1459 36.0523 10.2239 36.0335 10.2885 35.9872C10.3491 35.9406 10.4019 35.8692 10.447 35.773L10.5507 35.4994C10.6358 35.3185 10.7679 35.2363 10.9472 35.253C11.1702 35.2737 11.2684 35.4274 11.2418 35.7142L10.9468 38.8925C10.9331 39.0399 10.8931 39.1466 10.8267 39.2128C10.7567 39.2746 10.6719 39.3008 10.5723 39.2916C10.3931 39.275 10.2783 39.1699 10.228 38.9764L10.1764 38.6884C10.1501 38.5815 10.1114 38.5016 10.06 38.4487C10.0051 38.3913 9.93182 38.3584 9.84022 38.3499L3.376 37.7499L3.32776 38.2697C3.31001 38.4609 3.3439 38.6368 3.42943 38.7974C3.51097 38.9576 3.66981 39.129 3.90594 39.3116C4.14208 39.4942 4.48678 39.719 4.94004 39.9861C5.05037 40.0525 5.12156 40.1294 5.15363 40.2168C5.18171 40.3037 5.17881 40.3999 5.14494 40.5052C5.11467 40.6149 5.0555 40.6897 4.96742 40.7298C4.87935 40.7698 4.76871 40.7716 4.63551 40.7351L2.706 40.1644C2.52324 40.0992 2.39772 40.0233 2.32944 39.9366C2.25754 39.8455 2.22899 39.7204 2.24378 39.5611C2.25265 39.4655 2.27907 39.3755 2.32305 39.2912C2.36305 39.2066 2.40614 39.1101 2.45234 39.0019C2.49455 38.8934 2.52342 38.7554 2.53895 38.5882Z" fill="#FEFCF4"/>
<path d="M4.25921 27.6274L5.65522 23.7299C5.71187 23.5718 5.74402 23.4346 5.75166 23.3183C5.75553 23.2007 5.75724 23.0951 5.75679 23.0015C5.75257 22.9065 5.76665 22.8138 5.79902 22.7235C5.85297 22.5728 5.9311 22.4733 6.03339 22.425C6.13326 22.3716 6.27978 22.3539 6.47296 22.3721L8.46286 22.6706C8.60033 22.6901 8.70052 22.7366 8.76341 22.8101C8.82631 22.8836 8.84761 22.9784 8.82732 23.0943C8.8135 23.2041 8.77548 23.2924 8.71326 23.3594C8.64863 23.4212 8.55159 23.4608 8.42216 23.4782C7.8985 23.5286 7.49108 23.5866 7.19988 23.6522C6.90869 23.7179 6.69228 23.8061 6.55065 23.9168C6.4066 24.0224 6.30153 24.1675 6.23544 24.352L6.05942 24.8434L12.1712 27.0325C12.2578 27.0636 12.3381 27.0647 12.4121 27.036C12.4824 27.0059 12.5513 26.9499 12.6189 26.8679L12.7875 26.6287C12.9149 26.4746 13.0633 26.428 13.2328 26.4886C13.4437 26.5642 13.5005 26.7375 13.4034 27.0086L12.3271 30.0137C12.2772 30.153 12.2118 30.2465 12.1311 30.294C12.0479 30.3365 11.9592 30.3408 11.8651 30.3071C11.6956 30.2464 11.6106 30.1161 11.61 29.9162L11.6316 29.6244C11.6328 29.5143 11.6151 29.4273 11.5786 29.3632C11.5396 29.294 11.4768 29.2439 11.3902 29.2129L5.27846 27.0238L5.10244 27.5152C5.03769 27.696 5.02677 27.8748 5.06966 28.0516C5.10878 28.227 5.21999 28.4326 5.40327 28.6682C5.58656 28.9038 5.8645 29.2073 6.23709 29.5787C6.32741 29.6705 6.37724 29.7627 6.38657 29.8553C6.39214 29.9465 6.36542 30.0389 6.3064 30.1325C6.24981 30.2312 6.17388 30.289 6.07861 30.3058C5.98335 30.3227 5.87574 30.2969 5.7558 30.2284L4.02892 29.1956C3.86812 29.0871 3.76543 28.9823 3.72086 28.8813C3.67387 28.7753 3.67735 28.6469 3.7313 28.4963C3.76367 28.4059 3.81164 28.3254 3.87521 28.2547C3.93501 28.1826 4.00073 28.1 4.07239 28.0067C4.14028 27.912 4.20256 27.7856 4.25921 27.6274Z" fill="#FEFCF4"/>
<path d="M9.88771 15.2072C10.2733 14.6519 10.7088 14.2141 11.1942 13.8938C11.6786 13.5679 12.1946 13.3613 12.7422 13.274C13.2865 13.1845 13.8419 13.2122 14.4083 13.3572C14.9715 13.4999 15.5275 13.7618 16.0762 14.1428C16.5854 14.4965 17.0004 14.9088 17.321 15.3798C17.6439 15.8475 17.8596 16.3503 17.9681 16.8883C18.0766 17.4263 18.0684 17.9782 17.9434 18.5439C17.8184 19.1097 17.5654 19.6669 17.1843 20.2156C16.8011 20.7676 16.3683 21.2049 15.8862 21.5275C15.4008 21.8478 14.8859 22.0528 14.3416 22.1423C13.7941 22.2296 13.2375 22.2035 12.6721 22.0641C12.1056 21.9191 11.548 21.6561 10.9993 21.275C10.4901 20.9214 10.0751 20.5091 9.7545 20.0381C9.43388 19.5671 9.21817 19.0642 9.10736 18.5295C8.99883 17.9915 9.00708 17.4397 9.13209 16.8739C9.25711 16.3082 9.50898 15.7526 9.88771 15.2072ZM15.8363 16.8762C15.396 16.5705 14.9443 16.3128 14.4811 16.1032C14.0147 15.8913 13.5589 15.7306 13.1138 15.6212C12.6677 15.5062 12.2528 15.4446 11.869 15.4362C11.4819 15.4255 11.1449 15.4691 10.8579 15.5668C10.5699 15.659 10.354 15.8086 10.2103 16.0156C10.0369 16.2653 9.96135 16.5318 9.98372 16.8152C10.0028 17.0963 10.1189 17.3814 10.332 17.6706C10.5418 17.9575 10.8488 18.2413 11.2529 18.5219C11.6932 18.8277 12.1465 19.0865 12.613 19.2984C13.0762 19.508 13.5308 19.6703 13.9769 19.7853C14.4197 19.898 14.8346 19.9597 15.2217 19.9703C15.6087 19.981 15.9463 19.9402 16.2343 19.8481C16.5213 19.7503 16.7367 19.5979 16.8804 19.3909C17.0584 19.1347 17.1367 18.8676 17.1153 18.5898C17.0929 18.3065 16.9752 18.0202 16.7621 17.731C16.549 17.4417 16.2404 17.1568 15.8363 16.8762Z" fill="#FEFCF4"/>
<path fill-rule="evenodd" clip-rule="evenodd" d="M22.8481 70.623C22.767 70.9837 22.6845 71.3421 22.6006 71.6983C29.3531 76.9039 37.8154 80 47.0008 80C69.0922 80 87.0008 62.0914 87.0008 40C87.0008 17.9086 69.0922 0 47.0008 0C37.7235 0 29.1838 3.15837 22.3984 8.45852C22.4851 8.81374 22.5705 9.17125 22.6543 9.53099C29.3267 4.1924 37.791 1 47.0008 1C68.5399 1 86.0008 18.4609 86.0008 40C86.0008 61.5391 68.5399 79 47.0008 79C37.8799 79 29.4902 75.8689 22.8481 70.623Z" fill="#FEFCF4"/>
</svg>
