<svg width="88" height="80" viewBox="0 0 88 80" fill="none" xmlns="http://www.w3.org/2000/svg">
<path d="M15.1194 68.3003L14.7169 67.61L19.811 65.4296C19.9046 65.3914 19.9944 65.3486 20.0803 65.3013C20.1632 65.2565 20.2532 65.1925 20.3503 65.1091L20.5279 64.9568C20.6129 64.8839 20.699 64.8521 20.7862 64.8617C20.8678 64.8707 20.9398 64.9117 21.0024 64.9846L22.1353 66.3052C22.2004 66.3811 22.2326 66.4615 22.2317 66.5466C22.2253 66.6312 22.1795 66.7099 22.0945 66.7829L21.9169 66.9352C21.8592 66.9847 21.8131 67.0322 21.7784 67.0778C21.7406 67.126 21.6878 67.2056 21.6197 67.3167L18.1501 72.7361C18.076 72.8524 18.0359 72.95 18.0298 73.029C18.0182 73.1075 18.0271 73.1947 18.0566 73.2906L18.1492 73.5275C18.1796 73.612 18.1837 73.6875 18.1616 73.7539C18.1395 73.8203 18.0996 73.8783 18.042 73.9277C17.963 73.9955 17.8802 74.0217 17.7934 74.0066C17.701 73.991 17.6066 73.9271 17.5102 73.8147L15.5138 71.4877C15.4175 71.3754 15.3699 71.2739 15.3712 71.1832C15.3698 71.0895 15.4071 71.0101 15.483 70.945C15.6045 70.8408 15.737 70.8325 15.8806 70.9201L16.1222 71.1002C16.2085 71.1579 16.2947 71.1631 16.3805 71.1158C16.4634 71.071 16.5516 70.9742 16.6453 70.8254L20.0134 65.6195L20.9025 65.8449L15.1194 68.3003ZM11.3581 66.1277C11.2792 66.1954 11.1935 66.2215 11.1011 66.2059C11.0087 66.1903 10.9156 66.1279 10.8218 66.0186L9.6498 64.6525C9.55083 64.5371 9.50198 64.4341 9.50324 64.3434C9.5045 64.2527 9.5446 64.1735 9.62353 64.1058C9.68121 64.0563 9.74129 64.0311 9.80376 64.0302C9.86364 64.0263 9.94695 64.0497 10.0537 64.1004L10.2425 64.1914C10.3852 64.2534 10.5334 64.2818 10.687 64.2765C10.838 64.2682 11.0297 64.2091 11.2622 64.0992L16.5488 61.6271C16.6872 61.5611 16.7919 61.5082 16.8631 61.4682C16.9342 61.4283 17.0092 61.3744 17.0882 61.3067L17.2658 61.1543C17.3508 61.0814 17.4369 61.0497 17.5241 61.0592C17.6057 61.0683 17.6777 61.1093 17.7402 61.1821L18.9083 62.5437C18.9708 62.6166 19.0017 62.6955 19.0008 62.7806C18.997 62.8682 18.9525 62.9485 18.8675 63.0214L18.6899 63.1738C18.6383 63.2181 18.5937 63.2643 18.5559 63.3125C18.5126 63.3602 18.4538 63.4422 18.3797 63.5585L14.8684 68.9109C14.7691 69.0593 14.7128 69.1656 14.6994 69.2299C14.6803 69.2936 14.6838 69.3592 14.7099 69.4264L14.7939 69.6626C14.8269 69.7502 14.8369 69.8233 14.824 69.8819C14.811 69.9405 14.7756 69.9945 14.7179 70.044C14.639 70.1117 14.5533 70.1378 14.4609 70.1222C14.3685 70.1066 14.2754 70.0442 14.1816 69.9349L12.2478 67.6808C12.1514 67.5684 12.1039 67.4669 12.1051 67.3762C12.1038 67.2825 12.1426 67.2018 12.2215 67.1341C12.2822 67.082 12.3482 67.0544 12.4193 67.0514C12.4874 67.0509 12.5636 67.0752 12.6478 67.1241L12.8737 67.2861C12.9548 67.3377 13.0321 67.3478 13.1054 67.3166C13.1761 67.2823 13.2689 67.1816 13.3838 67.0145L16.7988 61.8633L17.6189 62.0451L11.7168 64.7765C11.5315 64.8616 11.4062 64.9612 11.3407 65.0754C11.2753 65.1895 11.2764 65.3414 11.3442 65.5309L11.4426 65.747C11.4704 65.8285 11.4791 65.9001 11.4687 65.9617C11.4527 66.0229 11.4158 66.0782 11.3581 66.1277Z" fill="#FEFCF4"/>
<path d="M10.932 58.4531L9.00441 53.699L9.69946 53.4172L11.627 58.1713L10.932 58.4531ZM13.3906 56.006C13.4759 55.9714 13.5365 55.9188 13.5726 55.8481C13.605 55.7788 13.619 55.6911 13.6148 55.5849L13.5812 55.2943C13.5735 55.0945 13.6531 54.9608 13.8199 54.8932C13.9126 54.8556 14.0021 54.8581 14.0885 54.9008C14.1697 54.9413 14.238 55.0301 14.2936 55.1673L15.493 58.1254C15.5486 58.2625 15.5621 58.3757 15.5336 58.465C15.4998 58.5521 15.4366 58.6144 15.3439 58.652C15.1771 58.7196 15.0269 58.6791 14.8932 58.5304L14.715 58.2984C14.6426 58.2155 14.5714 58.1624 14.5014 58.1389C14.4263 58.1133 14.3461 58.1177 14.2608 58.1523L8.61152 60.4428C8.52626 60.4774 8.46745 60.5293 8.4351 60.5985C8.39753 60.6655 8.3816 60.754 8.38732 60.8639L8.42099 61.1546C8.42861 61.3543 8.34902 61.488 8.18221 61.5557C8.08583 61.5947 7.99706 61.594 7.91591 61.5536C7.83325 61.5094 7.76412 61.4187 7.70851 61.2816L6.50915 58.3235C6.45354 58.1863 6.44076 58.075 6.47081 57.9894C6.49936 57.9001 6.56183 57.8359 6.65821 57.7969C6.82502 57.7292 6.97525 57.7698 7.10891 57.9184L7.28715 58.1505C7.35809 58.2296 7.43113 58.282 7.50627 58.3076C7.5777 58.3348 7.65605 58.3311 7.74131 58.2965L13.3906 56.006ZM11.3977 51.0907C11.483 51.0561 11.5436 51.0034 11.5797 50.9327C11.6121 50.8635 11.6269 50.7776 11.6242 50.6751L11.5882 50.3789C11.5806 50.1791 11.6602 50.0454 11.827 49.9778C11.9197 49.9402 12.0092 49.9428 12.0956 49.9855C12.1767 50.0259 12.2459 50.1166 12.303 50.2575L13.5001 53.21C13.5557 53.3472 13.5692 53.4604 13.5407 53.5496C13.5069 53.6367 13.4437 53.699 13.351 53.7366C13.1842 53.8042 13.0347 53.7656 12.9026 53.6206L12.7221 53.383C12.6511 53.3039 12.58 53.2507 12.5085 53.2236C12.4334 53.1979 12.3532 53.2024 12.2679 53.237L6.6186 55.5275C6.53334 55.562 6.47453 55.6139 6.44218 55.6832C6.40611 55.7539 6.39018 55.8424 6.3944 55.9486L6.43032 56.2448C6.43644 56.4408 6.3561 56.5727 6.18929 56.6403C6.09291 56.6794 6.00414 56.6787 5.92299 56.6382C5.84033 56.594 5.7712 56.5034 5.71559 56.3662L4.51848 53.4137C4.46137 53.2728 4.44784 53.1596 4.47789 53.074C4.50644 52.9848 4.56891 52.9206 4.66529 52.8815C4.8321 52.8139 4.98233 52.8544 5.11599 53.0031L5.29649 53.2407C5.36592 53.3161 5.43821 53.3667 5.51335 53.3923C5.58478 53.4194 5.66313 53.4157 5.74839 53.3812L11.3977 51.0907Z" fill="#FEFCF4"/>
<path d="M8.55792 43.9311L9.03736 45.738L4.48195 48.7C4.34257 48.7875 4.24805 48.8621 4.19841 48.9238C4.14834 48.9815 4.11037 49.0581 4.08449 49.1534L4.03762 49.3335C4.01131 49.4249 3.97048 49.4937 3.91514 49.5399C3.8598 49.5861 3.79435 49.6134 3.71879 49.6215C3.61539 49.6327 3.52999 49.6058 3.46259 49.5407C3.39518 49.4756 3.3535 49.3694 3.33756 49.2223L2.99885 46.0966C2.98291 45.9494 3.00088 45.8369 3.05278 45.7588C3.10424 45.6768 3.18167 45.6302 3.28507 45.619C3.47197 45.5987 3.60403 45.685 3.68125 45.8778L3.7595 46.0986C3.81349 46.2256 3.87977 46.2989 3.95835 46.3185C4.03251 46.3346 4.14326 46.2985 4.2906 46.2101L7.95932 44.0322L8.41657 44.743L4.23698 43.2647C4.04898 43.2006 3.88953 43.1957 3.75863 43.2502C3.62375 43.305 3.53307 43.4335 3.48658 43.6357L3.44488 43.8635C3.42437 43.9342 3.38865 43.9944 3.33771 44.0441C3.2828 44.0943 3.2116 44.1242 3.12412 44.1337C3.02072 44.1449 2.93532 44.1179 2.86791 44.0528C2.8005 43.9877 2.75883 43.8815 2.74288 43.7344L2.5522 41.9747C2.53626 41.8276 2.55445 41.717 2.60677 41.6429C2.65867 41.5649 2.73631 41.5202 2.83971 41.509C2.91924 41.5004 2.9868 41.5112 3.04237 41.5414C3.09795 41.5716 3.15213 41.6261 3.20492 41.7048L3.26299 41.7951C3.30342 41.8712 3.35911 41.9396 3.43007 42.0003C3.49704 42.0614 3.59229 42.1235 3.7158 42.1866C3.8349 42.2461 4.00544 42.3161 4.22741 42.3967L8.55792 43.9311ZM8.34 46.0972L8.0905 43.7947L10.0172 43.5859C10.1087 43.576 10.1814 43.5419 10.2355 43.4838C10.2856 43.426 10.3233 43.3475 10.3488 43.2482L10.3953 42.9535C10.4426 42.7592 10.5558 42.6524 10.7347 42.633C10.8342 42.6223 10.9196 42.6492 10.9909 42.7139C11.0579 42.775 11.0994 42.8792 11.1153 43.0263L11.4592 46.1997C11.4751 46.3469 11.4572 46.4595 11.4053 46.5375C11.349 46.612 11.2711 46.6547 11.1717 46.6654C10.9927 46.6848 10.8593 46.6047 10.7715 46.4251L10.6636 46.1532C10.6166 46.0537 10.5626 45.9831 10.5018 45.9414C10.4365 45.8961 10.3582 45.8785 10.2667 45.8884L8.34 46.0972Z" fill="#FEFCF4"/>
<path d="M3.22949 32.0235L4.22101 28.004C4.26125 27.8409 4.27925 27.7012 4.275 27.5848C4.26687 27.4674 4.25781 27.3622 4.24782 27.2691C4.23394 27.175 4.2385 27.0814 4.26149 26.9882C4.29981 26.8328 4.36739 26.7259 4.46422 26.6674C4.55813 26.604 4.70209 26.5716 4.89612 26.57L6.90607 26.6641C7.04482 26.6695 7.14922 26.7055 7.21928 26.7723C7.28934 26.839 7.32019 26.9311 7.31183 27.0485C7.30926 27.1591 7.28044 27.2508 7.22537 27.3238C7.16738 27.3919 7.07488 27.4412 6.94789 27.4716C6.43209 27.5751 6.0327 27.6743 5.74972 27.7693C5.46673 27.8643 5.26043 27.9741 5.13082 28.0987C4.99829 28.2184 4.90855 28.3734 4.86161 28.5637L4.73659 29.0706L11.0396 30.6254C11.129 30.6474 11.209 30.6404 11.2797 30.6043C11.3465 30.5672 11.4094 30.5044 11.4683 30.4159L11.6116 30.1608C11.7226 29.9946 11.8655 29.933 12.0403 29.9761C12.2577 30.0298 12.332 30.1964 12.263 30.476L11.4985 33.5751C11.4631 33.7188 11.4076 33.8184 11.3321 33.874C11.2537 33.9247 11.1659 33.938 11.0689 33.9141C10.8941 33.871 10.7962 33.75 10.7752 33.5512L10.767 33.2587C10.757 33.1491 10.7305 33.0643 10.6877 33.0043C10.6419 32.9395 10.5743 32.896 10.485 32.874L4.18191 31.3191L4.05689 31.826C4.01091 32.0124 4.01826 32.1913 4.07894 32.3629C4.13574 32.5334 4.26732 32.7266 4.47366 32.9423C4.68001 33.158 4.98743 33.4315 5.39593 33.763C5.49514 33.8452 5.55411 33.9318 5.57283 34.023C5.58766 34.1131 5.57049 34.2078 5.52133 34.3069C5.47509 34.4108 5.40544 34.4761 5.31239 34.5025C5.21934 34.529 5.10966 34.5143 4.98337 34.4585L3.16022 33.607C2.98919 33.5154 2.87636 33.4217 2.82173 33.3258C2.76418 33.2251 2.75456 33.097 2.79288 32.9417C2.81587 32.8485 2.85538 32.7635 2.91141 32.6867C2.96356 32.6089 3.02052 32.5199 3.08229 32.4198C3.14019 32.3187 3.18925 32.1867 3.22949 32.0235Z" fill="#FEFCF4"/>
<path d="M10.1386 23.1716L12.6825 18.7167L13.3338 19.0886L10.7899 23.5435L10.1386 23.1716ZM13.5822 23.5903C13.6621 23.6359 13.741 23.651 13.8189 23.6356C13.8933 23.6182 13.9709 23.575 14.0518 23.5061L14.2594 23.2998C14.4116 23.1703 14.5659 23.1502 14.7222 23.2394C14.8091 23.289 14.8624 23.3609 14.8823 23.4552C14.9007 23.544 14.8732 23.6527 14.7998 23.7812L13.217 26.5531C13.1436 26.6816 13.063 26.7623 12.9752 26.795C12.8859 26.8223 12.7978 26.8112 12.711 26.7616C12.5546 26.6724 12.4936 26.5292 12.5277 26.3323L12.5999 26.0487C12.6202 25.9405 12.6179 25.8517 12.5931 25.7823C12.5668 25.7074 12.5137 25.6471 12.4338 25.6015L7.14006 22.5786C7.06017 22.533 6.98301 22.5188 6.9086 22.5362C6.83269 22.5482 6.75332 22.5904 6.67049 22.6628L6.46291 22.869C6.31064 22.9986 6.15634 23.0187 6.00003 22.9294C5.90972 22.8779 5.85537 22.8077 5.83699 22.7189C5.82059 22.6266 5.84909 22.5162 5.92248 22.3877L7.50533 19.6158C7.57872 19.4873 7.65833 19.4083 7.74415 19.379C7.83196 19.3463 7.92102 19.3557 8.01133 19.4073C8.16764 19.4965 8.22871 19.6396 8.19453 19.8366L8.12243 20.1202C8.1041 20.2249 8.1081 20.3147 8.13442 20.3896C8.15726 20.4625 8.20863 20.5218 8.28852 20.5674L13.5822 23.5903ZM16.2124 18.9843C16.2923 19.03 16.3712 19.0451 16.4491 19.0297C16.5235 19.0123 16.6001 18.9708 16.679 18.9053L16.8895 18.6939C17.0418 18.5644 17.1961 18.5442 17.3524 18.6335C17.4392 18.6831 17.4926 18.755 17.5125 18.8493C17.5309 18.9381 17.5024 19.0485 17.427 19.1805L15.8471 21.9472C15.7737 22.0757 15.6931 22.1563 15.6053 22.1891C15.516 22.2164 15.4279 22.2053 15.3411 22.1557C15.1848 22.0664 15.1227 21.925 15.1549 21.7315L15.23 21.4428C15.2483 21.3381 15.2461 21.2493 15.2232 21.1763C15.1969 21.1014 15.1438 21.0412 15.0639 20.9955L9.77022 17.9726C9.69032 17.927 9.61317 17.9129 9.53876 17.9303C9.46087 17.9457 9.3815 17.9879 9.30065 18.0569L9.0901 18.2683C8.9398 18.3944 8.7865 18.4128 8.63019 18.3235C8.53988 18.2719 8.48553 18.2017 8.46715 18.1129C8.45075 18.0207 8.47924 17.9103 8.55263 17.7817L10.1325 15.015C10.2079 14.8831 10.2885 14.8024 10.3743 14.7731C10.4621 14.7403 10.5512 14.7497 10.6415 14.8013C10.7978 14.8906 10.8589 15.0337 10.8247 15.2307L10.7496 15.5194C10.7333 15.6207 10.7383 15.7087 10.7646 15.7836C10.7874 15.8566 10.8388 15.9158 10.9187 15.9615L16.2124 18.9843Z" fill="#FEFCF4"/>
<path d="M20.2104 14.2497C20.278 14.3121 20.3515 14.3446 20.4309 14.3471C20.5073 14.3469 20.5913 14.3237 20.6829 14.2776L20.9355 14.1188C21.113 14.0268 21.2679 14.0419 21.4001 14.164C21.4736 14.2318 21.5094 14.3139 21.5076 14.4102C21.5056 14.5008 21.453 14.602 21.3499 14.7137L19.1889 17.0548C19.0885 17.1635 18.9919 17.224 18.8989 17.2362C18.8058 17.2428 18.7225 17.2121 18.649 17.1443C18.5167 17.0222 18.488 16.8705 18.5629 16.6892L18.7009 16.4246C18.745 16.3238 18.7627 16.2368 18.7541 16.1635C18.7453 16.0846 18.7071 16.0139 18.6395 15.9515L14.1602 11.8167C14.0926 11.7543 14.0206 11.7232 13.9442 11.7234C13.8675 11.718 13.7807 11.7413 13.6837 11.7933L13.431 11.952C13.2563 12.0411 13.1028 12.0246 12.9705 11.9025C12.8941 11.832 12.8569 11.7513 12.8589 11.6607C12.8637 11.5671 12.9162 11.4659 13.0166 11.3572L15.1776 9.01609C15.2807 8.9044 15.3774 8.84392 15.4676 8.83465C15.5605 8.82244 15.6452 8.85161 15.7216 8.92215C15.8539 9.04424 15.8812 9.19742 15.8037 9.38169L15.6657 9.64622C15.627 9.74118 15.6121 9.82811 15.6209 9.90702C15.6268 9.98321 15.6635 10.0525 15.7311 10.1149L20.2104 14.2497Z" fill="#FEFCF4"/>
<path d="M25.2364 11.5445C24.9926 11.726 24.7621 11.8552 24.545 11.932C24.3335 12.0096 24.1497 12.0642 23.9936 12.0956C23.8407 12.1246 23.7306 12.1642 23.6632 12.2144C23.5958 12.2645 23.548 12.3276 23.5197 12.4035C23.4946 12.477 23.4747 12.5541 23.46 12.6348C23.4453 12.7156 23.4255 12.7927 23.4004 12.8662C23.3753 12.9397 23.3291 13.0016 23.2617 13.0517C23.1815 13.1114 23.095 13.1359 23.0022 13.1252C22.9119 13.1176 22.8153 13.0649 22.7124 12.9669L21.2055 11.5754C21.1362 11.5023 21.0977 11.4238 21.09 11.3398C21.0823 11.2557 21.1094 11.1682 21.1713 11.0773C21.2405 10.9759 21.3219 10.9178 21.4156 10.903C21.51 10.8825 21.62 10.9029 21.7453 10.9642C22.2173 11.1963 22.6316 11.3442 22.9881 11.4079C23.3423 11.4684 23.6571 11.466 23.9326 11.4006C24.2056 11.332 24.4512 11.2165 24.6694 11.054C24.9678 10.8319 25.1488 10.5826 25.2122 10.306C25.2788 10.0271 25.2154 9.75763 25.0219 9.49773C24.8953 9.32766 24.743 9.2067 24.5648 9.13485C24.3843 9.05979 24.1288 9.04806 23.7982 9.09965C23.4708 9.14885 23.0251 9.27363 22.4612 9.47397C21.8524 9.68774 21.3224 9.803 20.8711 9.81976C20.4175 9.8333 20.017 9.74743 19.6696 9.56216C19.3199 9.37368 19.0006 9.08531 18.7116 8.69705C18.4131 8.29596 18.2454 7.86974 18.2087 7.41841C18.1727 6.96147 18.2668 6.51501 18.4908 6.07903C18.718 5.64066 19.0706 5.24354 19.5487 4.88769C19.8247 4.6823 20.0748 4.53601 20.2991 4.44883C20.5235 4.36165 20.7185 4.29876 20.8842 4.26017C21.0532 4.21918 21.181 4.16645 21.2676 4.10197C21.3446 4.04465 21.3885 3.96961 21.3992 3.87685C21.4076 3.78088 21.4203 3.68412 21.4375 3.58658C21.4555 3.48345 21.5126 3.39606 21.6089 3.32441C21.6955 3.25992 21.788 3.23346 21.8864 3.24502C21.9847 3.25658 22.1097 3.32064 22.2613 3.43719L23.8911 4.69236C23.9908 4.77272 24.0528 4.86615 24.0773 4.97264C24.0993 5.07592 24.0777 5.17425 24.0126 5.26761C23.941 5.36575 23.8568 5.42344 23.7599 5.44069C23.6663 5.45554 23.5648 5.43637 23.4553 5.38317C22.9491 5.13172 22.4944 4.97646 22.0914 4.91738C21.6893 4.85271 21.3308 4.8602 21.0162 4.93985C20.7047 5.01711 20.4318 5.14292 20.1976 5.31726C19.9056 5.5346 19.7382 5.78879 19.6956 6.07983C19.6505 6.36767 19.7259 6.64315 19.9218 6.90627C20.0436 7.06991 20.1943 7.19206 20.374 7.27272C20.5569 7.35099 20.8125 7.37272 21.1406 7.33792C21.4719 7.30073 21.9203 7.19637 22.4857 7.02484C23.1145 6.83114 23.6512 6.7283 24.0961 6.71632C24.5441 6.70196 24.9331 6.77898 25.2628 6.94739C25.5926 7.1158 25.8873 7.37767 26.1468 7.73303C26.4238 8.10524 26.5795 8.51541 26.6139 8.96354C26.6515 9.40928 26.5586 9.85735 26.3354 10.3077C26.1097 10.7549 25.7434 11.1672 25.2364 11.5445Z" fill="#FEFCF4"/>
<path fill-rule="evenodd" clip-rule="evenodd" d="M28.4073 74.2906C28.3131 74.6204 28.2177 74.9477 28.1211 75.2728C33.7448 78.2893 40.1734 80.0002 47.0016 80.0002C69.093 80.0002 87.0016 62.0916 87.0016 40.0002C87.0016 17.9089 69.093 0.000244141 47.0016 0.000244141C40.4698 0.000244141 34.3037 1.56585 28.858 4.34228C28.9456 4.67059 29.0319 5.00104 29.1171 5.3336C34.4741 2.56429 40.5552 1.00024 47.0016 1.00024C68.5407 1.00024 86.0016 18.4611 86.0016 40.0002C86.0016 61.5393 68.5407 79.0002 47.0016 79.0002C40.2688 79.0002 33.9344 77.2941 28.4073 74.2906Z" fill="#FEFCF4"/>
</svg>
