<svg width="109" height="100" viewBox="0 0 109 100" fill="none" xmlns="http://www.w3.org/2000/svg">
<path d="M20.5651 87.0855L19.9855 86.1915L26.6327 82.9666C26.7551 82.9098 26.872 82.8471 26.9834 82.7787C27.0909 82.7139 27.2067 82.6229 27.3309 82.5058L27.5578 82.2917C27.6664 82.1892 27.7791 82.1416 27.8959 82.1487C28.0051 82.1557 28.1036 82.2057 28.1914 82.2988L29.7836 83.9863C29.8751 84.0833 29.9229 84.1884 29.9272 84.3017C29.9239 84.4148 29.8679 84.5226 29.7593 84.6251L29.5324 84.8392C29.4587 84.9087 29.4002 84.9749 29.3568 85.0378C29.3096 85.1044 29.2442 85.2138 29.1605 85.366L24.881 92.8023C24.7896 92.9619 24.7423 93.0945 24.7393 93.2C24.7287 93.3053 24.746 93.4209 24.7914 93.5467L24.9296 93.8564C24.9754 93.9671 24.9857 94.0674 24.9604 94.1572C24.9352 94.247 24.8857 94.3267 24.812 94.3962C24.7111 94.4914 24.6025 94.5316 24.4859 94.5169C24.3619 94.502 24.2321 94.4228 24.0967 94.2792L21.2913 91.3058C21.1558 91.1623 21.0861 91.0301 21.0821 90.9092C21.0744 90.7845 21.119 90.6764 21.216 90.5849C21.3712 90.4385 21.5472 90.4191 21.744 90.5267L22.077 90.7514C22.1957 90.8228 22.3107 90.8242 22.4221 90.7558C22.5297 90.691 22.6411 90.5565 22.7564 90.3524L26.9144 83.2068L28.1127 83.451L20.5651 87.0855ZM15.4188 84.4288C15.318 84.524 15.2055 84.5641 15.0815 84.5492C14.9574 84.5343 14.8295 84.457 14.6977 84.3173L13.0507 82.5717C12.9116 82.4242 12.8401 82.2901 12.836 82.1693C12.832 82.0484 12.8804 81.9404 12.9813 81.8453C13.055 81.7757 13.1334 81.7384 13.2165 81.7333C13.296 81.7242 13.4085 81.7502 13.5538 81.811L13.811 81.9203C14.005 81.9939 14.2042 82.0223 14.4084 82.0056C14.609 81.985 14.8606 81.8942 15.1633 81.7333L22.0485 78.1078C22.2287 78.0112 22.3648 77.934 22.4571 77.8763C22.5493 77.8187 22.6458 77.7422 22.7467 77.6471L22.9736 77.433C23.0822 77.3305 23.1949 77.2828 23.3117 77.29C23.4209 77.2969 23.5194 77.347 23.6072 77.4401L25.2488 79.1799C25.3366 79.273 25.3827 79.3762 25.3869 79.4895C25.3873 79.6065 25.3332 79.7162 25.2245 79.8187L24.9976 80.0328C24.9317 80.095 24.8751 80.1594 24.8279 80.2259C24.7731 80.2923 24.7 80.4052 24.6086 80.5648L20.2693 87.9145C20.1465 88.1184 20.0781 88.2636 20.0643 88.3499C20.0429 88.4361 20.0517 88.5231 20.0906 88.611L20.2175 88.9203C20.2669 89.0349 20.2849 89.1317 20.2713 89.2105C20.2577 89.2893 20.214 89.3635 20.1403 89.4331C20.0394 89.5282 19.927 89.5683 19.8029 89.5534C19.6788 89.5385 19.5509 89.4612 19.4192 89.3215L16.7016 86.4412C16.5662 86.2977 16.4964 86.1655 16.4924 86.0446C16.4847 85.9199 16.5313 85.81 16.6322 85.7148C16.7097 85.6416 16.7958 85.6007 16.8904 85.5922C16.9811 85.5872 17.084 85.6148 17.1992 85.6747L17.5103 85.8762C17.6216 85.9398 17.7251 85.9484 17.8208 85.9022C17.9128 85.852 18.0301 85.7121 18.1726 85.4823L22.3964 78.4065L23.5 78.5971L15.8114 82.6067C15.5701 82.7317 15.4094 82.8723 15.3294 83.0284C15.2494 83.1845 15.2605 83.3867 15.3627 83.6349L15.5073 83.9164C15.5495 84.0233 15.5656 84.1181 15.5556 84.2008C15.5382 84.2833 15.4926 84.3593 15.4188 84.4288Z" fill="#FEFCF4"/>
<path d="M14.4127 74.0958L11.6311 67.847L12.5447 67.4403L15.3263 73.6892L14.4127 74.0958ZM17.5795 70.7247C17.6915 70.6748 17.77 70.6019 17.8149 70.5061C17.8549 70.4124 17.8697 70.2948 17.8594 70.1535L17.8015 69.7677C17.7824 69.5018 17.8824 69.3201 18.1017 69.2225C18.2235 69.1683 18.3429 69.1677 18.4599 69.2207C18.5699 69.271 18.665 69.3863 18.7452 69.5665L20.476 73.4547C20.5562 73.635 20.5793 73.7853 20.5453 73.9055C20.5042 74.023 20.4227 74.1089 20.3009 74.1631C20.0817 74.2607 19.8797 74.2135 19.6949 74.0213L19.447 73.7201C19.3467 73.613 19.2495 73.5453 19.1552 73.5172C19.054 73.4864 18.9473 73.496 18.8352 73.5458L11.4097 76.8512C11.2976 76.9011 11.2215 76.9729 11.1815 77.0666C11.1345 77.1576 11.1172 77.2762 11.1297 77.4224L11.1876 77.8082C11.2067 78.0741 11.1067 78.2558 10.8874 78.3534C10.7607 78.4098 10.6424 78.4128 10.5324 78.3625C10.4203 78.3074 10.3241 78.1896 10.2439 78.0094L8.51313 74.1212C8.43289 73.9409 8.41087 73.7931 8.44709 73.6777C8.48113 73.5575 8.5615 73.4691 8.68818 73.4128C8.90744 73.3152 9.10945 73.3624 9.29422 73.5546L9.54214 73.8558C9.64021 73.9581 9.73989 74.0246 9.84117 74.0554C9.93758 74.0884 10.0418 74.0799 10.1539 74.0301L17.5795 70.7247ZM14.7035 64.2639C14.8156 64.214 14.8941 64.1411 14.939 64.0452C14.979 63.9515 14.9949 63.8365 14.9867 63.7L14.9256 63.3069C14.9064 63.041 15.0065 62.8593 15.2258 62.7617C15.3476 62.7075 15.467 62.7068 15.584 62.7599C15.694 62.8101 15.7901 62.9279 15.8726 63.113L17.6001 66.9939C17.6803 67.1742 17.7034 67.3244 17.6694 67.4447C17.6283 67.5622 17.5468 67.6481 17.425 67.7023C17.2058 67.7999 17.0048 67.7551 16.8222 67.5678L16.5711 67.2593C16.473 67.157 16.3757 67.0894 16.2793 67.0564C16.178 67.0256 16.0714 67.0351 15.9593 67.085L8.53374 70.3904C8.42168 70.4402 8.34563 70.512 8.30561 70.6057C8.26072 70.7016 8.24346 70.8202 8.25383 70.9616L8.31498 71.3547C8.33192 71.6157 8.23075 71.795 8.01149 71.8926C7.88481 71.949 7.76649 71.952 7.65653 71.9017C7.54441 71.8465 7.44822 71.7288 7.36797 71.5485L5.64047 67.6676C5.55806 67.4825 5.53496 67.3322 5.57117 67.2169C5.60522 67.0966 5.68558 67.0083 5.81227 66.9519C6.03153 66.8543 6.23354 66.9016 6.41831 67.0937L6.66948 67.4022C6.76538 67.4997 6.86397 67.5638 6.96526 67.5946C7.06167 67.6276 7.1659 67.6191 7.27797 67.5692L14.7035 64.2639Z" fill="#FEFCF4"/>
<path d="M11.0518 55.9159L11.7556 58.3069L5.79012 62.4182C5.60748 62.5399 5.48419 62.6427 5.42024 62.7267C5.35557 62.8055 5.3077 62.9088 5.27662 63.0368L5.22061 63.2786C5.18882 63.4013 5.13687 63.4945 5.06477 63.5581C4.99266 63.6217 4.9064 63.6603 4.80599 63.6739C4.66858 63.6925 4.55379 63.6597 4.46161 63.5753C4.36943 63.4909 4.31007 63.351 4.28355 63.1554L3.72002 59.0015C3.69349 58.8059 3.71341 58.6552 3.77978 58.5493C3.84543 58.4382 3.94696 58.3733 4.08437 58.3546C4.33276 58.3209 4.51187 58.4312 4.62171 58.6854L4.73392 58.9769C4.81043 59.1442 4.9014 59.2395 5.00683 59.2629C5.10626 59.2817 5.25258 59.2295 5.44579 59.1064L10.2576 56.072L10.8925 57.0031L5.2687 55.1826C5.01583 55.1039 4.80313 55.1031 4.63061 55.1804C4.45281 55.2583 4.33655 55.4329 4.28184 55.704L4.23443 56.0092C4.20962 56.104 4.16417 56.1855 4.09806 56.2537C4.02668 56.3226 3.93285 56.3649 3.81658 56.3807C3.67917 56.3993 3.56438 56.3665 3.4722 56.2821C3.38002 56.1977 3.32067 56.0578 3.29414 55.8622L2.97688 53.5236C2.95036 53.3281 2.97064 53.18 3.03772 53.0794C3.10409 52.9736 3.20598 52.9113 3.34339 52.8927C3.44908 52.8783 3.53951 52.8903 3.61467 52.9285C3.68983 52.9668 3.764 53.0374 3.83719 53.1405L3.91782 53.2588C3.97443 53.3587 4.05112 53.4479 4.14786 53.5263C4.23933 53.6053 4.3685 53.6847 4.53539 53.7643C4.69627 53.8394 4.92608 53.9266 5.22482 54.026L11.0518 55.9159ZM10.839 58.8107L10.4239 55.7508L12.9844 55.4034C13.106 55.3869 13.2017 55.3389 13.2717 55.2595C13.3363 55.1807 13.3839 55.0747 13.4142 54.9414L13.4657 54.5469C13.5218 54.2863 13.6688 54.1399 13.9066 54.1077C14.0387 54.0897 14.1535 54.1226 14.251 54.2063C14.3424 54.2854 14.4014 54.4227 14.428 54.6182L15.0001 58.8356C15.0266 59.0311 15.0067 59.1818 14.9403 59.2877C14.868 59.389 14.7657 59.4487 14.6336 59.4666C14.3958 59.4988 14.2151 59.3969 14.0916 59.1607L13.938 58.8021C13.8718 58.6711 13.7974 58.5789 13.7148 58.5256C13.6262 58.4676 13.5211 58.4469 13.3995 58.4634L10.839 58.8107Z" fill="#FEFCF4"/>
<path d="M3.63572 40.9578L4.87603 35.579C4.92636 35.3607 4.94752 35.174 4.9395 35.0189C4.92628 34.8626 4.91206 34.7225 4.89685 34.5986C4.87644 34.4735 4.88062 34.3485 4.90938 34.2238C4.95731 34.0159 5.04524 33.872 5.17314 33.792C5.29705 33.7057 5.48832 33.6595 5.74696 33.6534L8.4285 33.7381C8.61358 33.7425 8.7535 33.7884 8.84826 33.876C8.94302 33.9635 8.98601 34.0856 8.97724 34.2423C8.97607 34.3898 8.93951 34.5127 8.86757 34.6111C8.79164 34.7031 8.66932 34.7706 8.50064 34.8138C7.81509 34.9623 7.28465 35.1027 6.9093 35.235C6.53396 35.3674 6.26116 35.518 6.09089 35.6867C5.91663 35.849 5.80014 36.0575 5.74142 36.3122L5.58503 36.9904L14.0197 38.9353C14.1392 38.9629 14.2458 38.9519 14.3393 38.9023C14.4276 38.8515 14.5102 38.7665 14.5869 38.6474L14.7727 38.3044C14.9174 38.0805 15.1067 37.9955 15.3405 38.0494C15.6315 38.1166 15.7339 38.3372 15.6476 38.7114L14.6913 42.8585C14.647 43.0508 14.5751 43.1848 14.4755 43.2603C14.372 43.3295 14.2553 43.3491 14.1254 43.3192C13.8915 43.2652 13.7586 43.106 13.7265 42.8413L13.7097 42.4516C13.6941 42.3057 13.6571 42.1931 13.5987 42.114C13.5363 42.0285 13.4454 41.9719 13.3258 41.9444L4.89118 39.9994L4.73479 40.6776C4.67727 40.9271 4.6907 41.1655 4.77509 41.393C4.85428 41.6192 5.03361 41.874 5.31308 42.1574C5.59256 42.4408 6.00796 42.7993 6.55929 43.2329C6.69322 43.3404 6.77359 43.4547 6.80039 43.5758C6.822 43.6958 6.80104 43.8223 6.7375 43.9554C6.67796 44.0949 6.58643 44.1833 6.46292 44.2205C6.3394 44.2577 6.19289 44.2403 6.02338 44.1684L3.57552 43.0703C3.34565 42.9516 3.19332 42.8289 3.11855 42.7022C3.03977 42.5691 3.02435 42.3986 3.07229 42.1907C3.10105 42.066 3.152 41.9519 3.22513 41.8483C3.29307 41.7436 3.36721 41.6239 3.44753 41.4891C3.52266 41.3532 3.58539 41.1761 3.63572 40.9578Z" fill="#FEFCF4"/>
<path d="M12.5748 29.5764L15.9007 23.5994L16.7745 24.0857L13.4486 30.0626L12.5748 29.5764ZM17.1721 30.0838C17.2793 30.1435 17.3847 30.1624 17.4883 30.1408C17.5873 30.1165 17.6902 30.0578 17.7969 29.9646L18.0706 29.6866C18.2718 29.5116 18.4772 29.4825 18.6869 29.5992C18.8034 29.664 18.8756 29.7592 18.9035 29.8845C18.9293 30.0027 18.8942 30.1479 18.7983 30.3204L16.7288 34.0394C16.6329 34.2118 16.5266 34.3205 16.41 34.3655C16.2914 34.4032 16.1738 34.3897 16.0573 34.3249C15.8476 34.2082 15.764 34.0182 15.8067 33.7551L15.8986 33.376C15.9241 33.2315 15.9198 33.1131 15.8857 33.0209C15.8495 32.9214 15.7778 32.8418 15.6706 32.7822L8.56817 28.83C8.46098 28.7703 8.35791 28.7527 8.25895 28.7769C8.15793 28.794 8.05273 28.8514 7.94336 28.9492L7.66965 29.2272C7.46854 29.4022 7.26313 29.4313 7.05341 29.3146C6.93224 29.2472 6.85874 29.1544 6.83292 29.0363C6.8097 28.9135 6.84606 28.7659 6.94201 28.5934L9.01147 24.8744C9.10742 24.702 9.21239 24.5956 9.32638 24.5553C9.44297 24.5103 9.56185 24.5215 9.68302 24.589C9.89273 24.7057 9.97626 24.8956 9.9336 25.1587L9.84165 25.5378C9.81877 25.6777 9.82542 25.7973 9.86161 25.8968C9.89314 25.9937 9.9625 26.072 10.0697 26.1316L17.1721 30.0838ZM20.6108 23.9041C20.718 23.9638 20.8234 23.9828 20.9271 23.9611C21.026 23.9368 21.1276 23.8804 21.2318 23.7919L21.5094 23.5069C21.7105 23.332 21.9159 23.3028 22.1256 23.4195C22.2421 23.4844 22.3143 23.5795 22.3422 23.7049C22.368 23.823 22.3317 23.9706 22.2331 24.1477L20.1675 27.8597C20.0716 28.0321 19.9653 28.1408 19.8487 28.1858C19.7301 28.2236 19.6125 28.21 19.496 28.1452C19.2863 28.0285 19.2015 27.8409 19.2415 27.5824L19.3374 27.1963C19.3603 27.0565 19.3559 26.9381 19.3244 26.8412C19.2882 26.7417 19.2165 26.6622 19.1093 26.6025L12.0069 22.6503C11.8997 22.5907 11.7966 22.573 11.6977 22.5973C11.594 22.619 11.4889 22.6764 11.3821 22.7695L11.1045 23.0545C10.906 23.2248 10.7018 23.2516 10.4921 23.1349C10.371 23.0675 10.2975 22.9747 10.2716 22.8566C10.2484 22.7338 10.2848 22.5862 10.3807 22.4138L12.4463 18.7018C12.5448 18.5247 12.6511 18.416 12.7651 18.3756C12.8817 18.3306 13.0006 18.3419 13.1217 18.4093C13.3315 18.526 13.415 18.7159 13.3723 18.979L13.2765 19.3651C13.2562 19.5003 13.2641 19.6177 13.3003 19.7171C13.3319 19.814 13.4012 19.8923 13.5084 19.9519L20.6108 23.9041Z" fill="#FEFCF4"/>
<path d="M25.0066 18.8262C25.0976 18.9084 25.1961 18.9506 25.3019 18.9528C25.4038 18.9514 25.5154 18.9193 25.6368 18.8564L25.9714 18.6412C26.2067 18.5159 26.4134 18.5337 26.5915 18.6946C26.6905 18.7839 26.7394 18.8928 26.7384 19.0213C26.737 19.1422 26.6684 19.2778 26.5326 19.4282L23.6854 22.5809C23.5532 22.7273 23.4252 22.8094 23.3015 22.827C23.1774 22.8371 23.0658 22.7975 22.9669 22.7081C22.7888 22.5472 22.7483 22.3454 22.8454 22.1026L23.0256 21.7479C23.0829 21.6128 23.1053 21.4965 23.0928 21.3989C23.0799 21.2939 23.0279 21.2002 22.9369 21.118L16.9047 15.6703C16.8137 15.5881 16.7172 15.5477 16.6153 15.5491C16.5131 15.543 16.3976 15.5753 16.2691 15.6461L15.9345 15.8613C15.7028 15.9826 15.4979 15.9629 15.3198 15.802C15.2169 15.7091 15.1661 15.6022 15.1675 15.4812C15.1725 15.3564 15.2411 15.2207 15.3733 15.0743L18.2205 11.9216C18.3563 11.7712 18.4843 11.6892 18.6045 11.6755C18.7282 11.6579 18.8415 11.6955 18.9444 11.7885C19.1225 11.9493 19.1612 12.1532 19.0605 12.4L18.8803 12.7546C18.8301 12.8818 18.8115 12.9979 18.8244 13.103C18.8334 13.2045 18.8833 13.2964 18.9744 13.3786L25.0066 18.8262Z" fill="#FEFCF4"/>
<path d="M31.6499 15.2186C31.3265 15.4629 31.0204 15.6374 30.7318 15.7419C30.4505 15.8475 30.206 15.922 29.9982 15.9654C29.7946 16.0056 29.6481 16.0595 29.5587 16.127C29.4694 16.1945 29.4062 16.279 29.3693 16.3805C29.3366 16.4787 29.3108 16.5817 29.292 16.6896C29.2732 16.7974 29.2474 16.9004 29.2147 16.9986C29.182 17.0969 29.121 17.1798 29.0316 17.2473C28.9253 17.3277 28.8102 17.3612 28.6864 17.3478C28.5658 17.3386 28.4365 17.2692 28.2984 17.1396L26.2757 15.2989C26.1826 15.2022 26.1304 15.0979 26.1194 14.9859C26.1083 14.8739 26.1436 14.757 26.2253 14.6351C26.3165 14.4993 26.4245 14.421 26.5492 14.4003C26.675 14.3721 26.8218 14.3983 26.9895 14.4787C27.621 14.7836 28.1748 14.9768 28.6509 15.0583C29.1237 15.1355 29.5434 15.1292 29.91 15.0393C30.2734 14.9452 30.5997 14.7888 30.8891 14.5701C31.2848 14.2711 31.5236 13.9369 31.6054 13.5675C31.6915 13.1949 31.6044 12.8363 31.3439 12.4916C31.1735 12.2661 30.9692 12.1063 30.731 12.0123C30.4895 11.914 30.1487 11.9008 29.7084 11.9728C29.2724 12.0416 28.6794 12.2123 27.9295 12.4849C27.1199 12.7758 26.4143 12.9347 25.8128 12.9614C25.2081 12.9839 24.6733 12.8733 24.2084 12.6296C23.7403 12.3817 23.3117 12.0004 22.9226 11.4855C22.5207 10.9536 22.293 10.387 22.2396 9.7856C22.1872 9.17672 22.3083 8.58054 22.6027 7.99706C22.9014 7.41037 23.3677 6.87747 24.0017 6.39836C24.3676 6.12182 24.6997 5.92434 24.9979 5.80592C25.2962 5.6875 25.5556 5.60176 25.7762 5.54869C26.0011 5.4924 26.1709 5.42085 26.2858 5.33403C26.3879 5.25686 26.4457 5.15638 26.4591 5.03259C26.4693 4.90456 26.4854 4.77543 26.5073 4.64522C26.5303 4.50753 26.6056 4.39046 26.7332 4.29399C26.8481 4.20717 26.9712 4.17099 27.1024 4.18544C27.2337 4.1999 27.4009 4.28409 27.6042 4.43802L29.7894 6.09567C29.9231 6.20185 30.0068 6.32581 30.0404 6.46756C30.0707 6.60505 30.0429 6.73635 29.957 6.86146C29.8625 6.99301 29.7508 7.07075 29.6218 7.09469C29.4971 7.11541 29.3616 7.09083 29.2152 7.02097C28.5377 6.69063 27.93 6.48805 27.3921 6.4132C26.8553 6.33089 26.3775 6.34437 25.9587 6.45363C25.5441 6.55967 25.1816 6.73006 24.8709 6.96479C24.4837 7.25741 24.2631 7.59794 24.2091 7.98641C24.1518 8.37062 24.255 8.73718 24.5187 9.08609C24.6827 9.30309 24.8848 9.46449 25.1252 9.57028C25.3699 9.67286 25.7108 9.69935 26.1479 9.64976C26.5893 9.59695 27.1862 9.45344 27.9384 9.21923C28.7748 8.95485 29.4894 8.81251 30.0824 8.79222C30.6797 8.76871 31.199 8.86762 31.6403 9.08895C32.0817 9.31027 32.4771 9.65657 32.8265 10.1278C33.1995 10.6214 33.4111 11.1668 33.4613 11.7639C33.5157 12.3579 33.3963 12.9562 33.103 13.5588C32.8065 14.1573 32.3221 14.7105 31.6499 15.2186Z" fill="#FEFCF4"/>
<path fill-rule="evenodd" clip-rule="evenodd" d="M38.8093 96.9659C38.7208 97.2884 38.6315 97.6089 38.5413 97.9273C43.5042 99.2758 48.7618 100 54.2048 100C84.4673 100 109 77.6142 109 50C109 22.3858 84.4673 0 54.2048 0C48.5635 0 43.1213 0.777902 38 2.22256C38.0957 2.53929 38.1904 2.85822 38.2842 3.1793C43.3118 1.76313 48.6578 1 54.2048 1C84.0032 1 108 23.0223 108 50C108 76.9777 84.0032 99 54.2048 99C48.8505 99 43.6834 98.289 38.8093 96.9659Z" fill="#FEFCF4"/>
</svg>
